<?xml version="1.0" standalone="no"?>
<!DOCTYPE svg PUBLIC "-//W3C//DTD SVG 20010904//EN"
 "http://www.w3.org/TR/2001/REC-SVG-20010904/DTD/svg10.dtd">
<svg version="1.0" xmlns="http://www.w3.org/2000/svg"
 width="298.000000pt" height="326.000000pt" viewBox="0 0 298.000000 326.000000"
 preserveAspectRatio="xMidYMid meet" >
<metadata>
Created by potrace 1.16, written by Peter Selinger 2001-2019
</metadata>
<g transform="translate(0.000000,326.000000) scale(0.100000,-0.100000)" stroke="none">
<path fill="#548064" d="m 0 1630 z m 2610 597 c -34 -304 -136 -598 -285 -822 c -367 -552 -1041 -770 -1805 -583 c -116 28 -133 41 -44 33 c 40 -3 130 -1 200 5 c 376 32 714 162 999 385 c 111 87 127 110 25 36 c -222 -161 -608 -308 -880 -336 l -55 -5 l 85 28 c 275 93 513 220 711 380 c 96 78 250 239 308 323 l 45 64 l -105 -100 c -274 -261 -616 -427 -1081 -524 c -144 -30 -360 -62 -408 -60 c -14 0 13 11 60 23 c 348 92 686 254 1093 523 c 70 47 127 87 127 90 c 0 2 -51 -22 -112 -55 c -87 -56 -513 -238 -815 -336 c -136 -44 -173 -53 -173 -40 c 0 3 16 33 36 67 c 20 34 75 145 123 247 c 107 229 146 298 223 401 c 125 167 288 260 501 289 c 108 14 250 12 462 -5 c 211 -18 459 -21 530 -6 c 90 18 156 44 210 80 c 17 12 31 16 33 10 c 2 -5 -1 -56 -8 -112 z" />
</g>
</svg>
