<svg width="154" height="154" viewBox="0 0 154 154" fill="none" xmlns="http://www.w3.org/2000/svg">
<path d="M107.314 47.1483C107.096 47.4167 106.864 47.6726 106.617 47.9148C106.59 47.9464 106.573 47.9849 106.568 48.0258C106.563 48.0667 106.57 48.1083 106.588 48.1455C106.605 48.1826 106.633 48.2139 106.669 48.2356C106.704 48.2572 106.744 48.2683 106.785 48.2674C107.674 47.7223 108.377 46.9205 108.801 45.9678C108.909 45.6459 108.41 45.3546 108.249 45.7072C107.828 46.6347 106.234 46.6884 105.812 46.5427C105.754 46.5214 105.69 46.5239 105.634 46.5498C105.578 46.5757 105.534 46.6228 105.513 46.6807C105.492 46.7387 105.494 46.8027 105.52 46.8588C105.546 46.9148 105.593 46.9583 105.651 46.9797C106.185 47.1644 106.754 47.2222 107.314 47.1483ZM104.532 43.239C104.171 43.5601 103.789 43.8571 103.39 44.1282C103.315 44.1768 103.253 44.244 103.212 44.3232C103.17 44.4024 103.15 44.491 103.152 44.5804C103.152 44.8564 104.118 45.5769 104.126 45.5846C104.166 45.6147 104.216 45.6296 104.267 45.6265C104.317 45.6235 104.365 45.6027 104.401 45.5679C104.438 45.5331 104.461 45.4864 104.467 45.4362C104.472 45.386 104.46 45.3354 104.432 45.2933C104.379 45.1936 104.072 44.818 103.88 44.5651C104.746 43.6989 105.137 43.4153 104.846 43.2007C104.797 43.1703 104.739 43.1576 104.682 43.1646C104.625 43.1715 104.572 43.1978 104.532 43.239ZM103.865 42.7714C104.172 42.6334 104.095 42.2808 104.463 41.361C104.477 41.3278 104.485 41.292 104.486 41.2557C104.487 41.2195 104.48 41.1834 104.467 41.1496C104.454 41.1158 104.434 41.0849 104.409 41.0587C104.384 41.0325 104.354 41.0115 104.321 40.9969C104.288 40.9823 104.252 40.9744 104.216 40.9736C104.179 40.9728 104.143 40.9792 104.11 40.9924C104.076 41.0056 104.045 41.0253 104.019 41.0504C103.993 41.0755 103.972 41.1055 103.957 41.1387C103.528 42.0355 103.19 42.2195 103.328 42.5338C103.345 42.5867 103.373 42.6355 103.41 42.6769C103.447 42.7183 103.492 42.7514 103.543 42.7738C103.594 42.7963 103.649 42.8077 103.704 42.8073C103.76 42.8069 103.815 42.7947 103.865 42.7714ZM107.023 43.7449C107.33 43.6069 107.261 43.2467 107.621 42.3345C107.65 42.2674 107.652 42.1913 107.625 42.1231C107.599 42.0548 107.546 41.9999 107.479 41.9704C107.412 41.9409 107.336 41.9393 107.268 41.9659C107.199 41.9925 107.145 42.0451 107.115 42.1122C106.762 42.8787 106.348 43.2007 106.479 43.5073C106.496 43.5605 106.525 43.6094 106.563 43.6508C106.6 43.6923 106.646 43.7253 106.698 43.7477C106.749 43.7701 106.805 43.7814 106.861 43.781C106.917 43.7805 106.972 43.7682 107.023 43.7449ZM44.5278 30.8212C44.1599 28.0847 44.2289 28.0234 43.9912 28.0234C30.5923 28.0234 31.3051 27.9314 31.3051 28.215V30.7522C31.3051 30.8595 31.3895 30.9898 31.4968 30.9898C45.0567 31.0358 44.5738 31.1125 44.5278 30.8212ZM48.8127 28.0234C45.1487 28.0234 45.3633 28.0234 45.279 28.0847C45.1947 28.146 45.21 28.031 45.5626 30.8672C45.5626 31.1048 45.6009 31.0358 48.8127 31.0358C48.8635 31.0358 48.9123 31.0156 48.9482 30.9797C48.9841 30.9438 49.0043 30.895 49.0043 30.8442V28.2073C49.0024 28.1578 48.9813 28.111 48.9456 28.0768C48.9098 28.0425 48.8622 28.0233 48.8127 28.0234ZM115.194 28.0694L110.334 28.4066C110.311 28.4066 110.287 28.4114 110.265 28.4207C110.243 28.4301 110.223 28.4438 110.207 28.4609C110.191 28.4781 110.178 28.4985 110.169 28.5208C110.161 28.5431 110.157 28.5668 110.158 28.5906V31.4881C110.158 31.5389 110.178 31.5876 110.214 31.6236C110.25 31.6595 110.299 31.6797 110.35 31.6797H115.202C115.253 31.6797 115.301 31.6595 115.337 31.6236C115.373 31.5876 115.394 31.5389 115.394 31.4881C115.394 28.2073 115.478 28.0617 115.194 28.0694ZM33.827 41.7136V39.4523C33.827 39.4015 33.8068 39.3528 33.7709 39.3168C33.735 39.2809 33.6862 39.2607 33.6354 39.2607H31.7574C31.7066 39.2607 31.6578 39.2809 31.6219 39.3168C31.586 39.3528 31.5658 39.4015 31.5658 39.4523C31.5658 41.9895 31.5658 41.8669 31.6271 41.9436C31.6884 42.0202 31.6271 42.0049 33.6431 41.9052C33.6919 41.9015 33.7377 41.8799 33.7716 41.8445C33.8056 41.8092 33.8253 41.7626 33.827 41.7136ZM44.7731 38.7471C34.287 39.2914 34.6779 39.1764 34.6779 39.4523C34.6779 41.7979 34.6779 41.6829 34.7315 41.7519C34.7852 41.8209 34.195 41.8132 44.7808 41.6599C44.8316 41.6599 44.8803 41.6397 44.9163 41.6038C44.9522 41.5679 44.9724 41.5191 44.9724 41.4683V38.9388C44.9736 38.9126 44.9692 38.8865 44.9595 38.8622C44.9498 38.8379 44.935 38.816 44.9161 38.7978C44.8973 38.7797 44.8747 38.7658 44.8501 38.757C44.8254 38.7483 44.7992 38.7449 44.7731 38.7471ZM60.3183 38.7395V40.9624C60.3183 41.0132 60.3385 41.062 60.3745 41.0979C60.4104 41.1338 60.4591 41.154 60.51 41.154C63.1468 41.154 63.0165 41.154 63.1008 41.085C63.1852 41.0161 63.1698 41.085 62.8249 38.7088C62.8249 38.4788 62.7099 38.5478 60.5253 38.5478C60.4989 38.5457 60.4723 38.5491 60.4472 38.5578C60.4222 38.5664 60.3992 38.5802 60.3798 38.5982C60.3603 38.6162 60.3448 38.6381 60.3342 38.6624C60.3237 38.6867 60.3182 38.713 60.3183 38.7395ZM71.6093 41.1157C71.6936 41.0161 71.6706 41.1157 71.4024 38.8621C71.4024 38.6245 71.7856 38.7088 64.266 38.5708C64.2387 38.5706 64.2118 38.5762 64.1869 38.5873C64.162 38.5983 64.1398 38.6145 64.1216 38.6348C64.1035 38.6551 64.0899 38.6791 64.0817 38.705C64.0736 38.731 64.0711 38.7584 64.0743 38.7854C64.3656 41.177 64.312 41.177 64.5419 41.177C72.0539 41.177 71.525 41.2383 71.6093 41.1157ZM73.0044 41.154C76.2698 41.246 76.0705 41.2613 76.1548 41.154C76.2392 41.0467 76.2162 41.2077 76.2162 38.7165C76.2142 38.6649 76.1923 38.6162 76.1552 38.5805C76.118 38.5447 76.0684 38.5248 76.0169 38.5248C72.4602 38.6628 72.6671 38.6245 72.5905 38.7165C72.5138 38.8084 72.5368 38.7165 72.8204 40.9624C72.8238 41.0108 72.844 41.0566 72.8776 41.0916C72.9113 41.1267 72.9561 41.1487 73.0044 41.154ZM34.6396 50.9503C35.0918 48.1141 35.0918 48.2674 35.0075 48.1754C34.9232 48.0835 35.0535 48.0988 32.3706 48.2444C32.3225 48.2483 32.2776 48.2702 32.2449 48.3057C32.2122 48.3412 32.1942 48.3878 32.1943 48.4361V51.0883C32.1943 51.1391 32.2145 51.1878 32.2505 51.2238C32.2864 51.2597 32.3351 51.2799 32.386 51.2799L34.4939 51.1113C34.5321 51.1033 34.5668 51.0835 34.593 51.0545C34.6192 51.0256 34.6355 50.9891 34.6396 50.9503ZM38.2269 50.7817C38.2269 47.9991 38.2269 48.1525 38.1656 48.0681C38.1043 47.9838 38.2116 48.0145 36.0883 48.1065C35.866 48.1065 35.912 48.1065 35.613 50.7587C35.6098 50.7857 35.6123 50.8131 35.6205 50.8391C35.6286 50.865 35.6422 50.889 35.6604 50.9093C35.6785 50.9296 35.7007 50.9458 35.7256 50.9568C35.7505 50.9679 35.7775 50.9735 35.8047 50.9733H38.0353C38.0861 50.9733 38.1349 50.9531 38.1708 50.9172C38.2067 50.8812 38.2269 50.8325 38.2269 50.7817ZM42.0596 47.9685C42.0596 50.7433 42.0596 50.59 42.1132 50.6743C42.1669 50.7587 41.0324 50.797 60.9316 49.7008C60.9582 49.6991 60.9842 49.6917 61.0079 49.6793C61.0315 49.6669 61.0523 49.6497 61.0689 49.6287C61.0855 49.6078 61.0975 49.5836 61.1043 49.5578C61.111 49.5319 61.1122 49.5049 61.1079 49.4786L60.6173 46.3511C60.6097 46.303 60.5841 46.2596 60.5456 46.2297C60.5072 46.1998 60.4588 46.1856 60.4103 46.1901C41.1474 47.8918 42.0596 47.6925 42.0596 47.9685ZM67.5084 49.2103C67.5084 45.5692 67.5084 45.7839 67.4471 45.6996C67.3857 45.6152 67.7153 45.5999 61.8897 46.1748C61.8375 46.1824 61.7902 46.2097 61.7575 46.251C61.7247 46.2923 61.709 46.3446 61.7134 46.3971C62.204 49.6089 62.1427 49.6242 62.3726 49.6242L67.3244 49.4019C67.3739 49.3999 67.4207 49.3789 67.455 49.3431C67.4893 49.3074 67.5084 49.2598 67.5084 49.2103ZM71.732 45.8375V49.1183C71.732 49.1691 71.7522 49.2178 71.7881 49.2538C71.824 49.2897 71.8728 49.3099 71.9236 49.3099H76.8064C76.8572 49.3099 76.906 49.2897 76.9419 49.2538C76.9778 49.2178 76.998 49.1691 76.998 49.1183C76.998 45.3623 76.998 45.6152 76.9367 45.5309C76.8754 45.4466 77.2357 45.4543 71.9159 45.6459C71.8665 45.6479 71.8197 45.6689 71.7854 45.7047C71.7511 45.7404 71.7319 45.788 71.732 45.8375ZM96.2456 36.3249C90.8799 36.6545 91.0562 36.5472 91.0562 36.8078V39.7743C91.0562 39.8251 91.0764 39.8738 91.1123 39.9098C91.1483 39.9457 91.197 39.9659 91.2478 39.9659H96.2609C96.3118 39.9659 96.3605 39.9457 96.3965 39.9098C96.4324 39.8738 96.4526 39.8251 96.4526 39.7743C96.4526 36.5165 96.5369 36.3096 96.2456 36.3249ZM36.7169 61.2601C36.9545 57.4735 36.9621 57.7801 36.8855 57.6958C36.8088 57.6114 37.1154 57.6344 32.7309 57.6344C32.6801 57.6344 32.6313 57.6546 32.5954 57.6906C32.5595 57.7265 32.5393 57.7752 32.5393 57.8261V61.2525C32.5393 61.3033 32.5595 61.352 32.5954 61.388C32.6313 61.4239 32.6801 61.4441 32.7309 61.4441H36.5252C36.5742 61.4424 36.6208 61.4226 36.6562 61.3887C36.6915 61.3548 36.7131 61.309 36.7169 61.2601ZM46.7967 57.4198C46.7472 57.4218 46.7005 57.4429 46.6662 57.4786C46.6319 57.5143 46.6127 57.5619 46.6128 57.6114V60.5166C46.6128 60.5674 46.633 60.6162 46.6689 60.6521C46.7048 60.688 46.7536 60.7082 46.8044 60.7082H49.8245C49.8753 60.7082 49.9241 60.688 49.96 60.6521C49.996 60.6162 50.0162 60.5674 50.0162 60.5166V57.4965C50.0142 57.4449 49.9923 57.3962 49.9551 57.3605C49.918 57.3247 49.8684 57.3048 49.8169 57.3048L46.7967 57.4198ZM64.5113 56.8296C50.4301 57.1975 51.1506 57.1592 51.1506 57.4351C51.1506 60.6929 51.1506 60.5013 51.2043 60.5856C51.2579 60.6699 50.4378 60.6776 64.5266 60.3403C64.5754 60.3366 64.6212 60.3149 64.6551 60.2796C64.6891 60.2442 64.7088 60.1976 64.7105 60.1487V57.0212C64.7117 56.9951 64.7073 56.969 64.6976 56.9447C64.6879 56.9204 64.6731 56.8984 64.6543 56.8803C64.6354 56.8621 64.6129 56.8482 64.5882 56.8395C64.5636 56.8308 64.5373 56.8274 64.5113 56.8296ZM76.7451 56.7606C76.4231 59.9187 76.4155 59.7271 76.4998 59.8267C76.5841 59.9264 76.0935 59.888 82.586 59.888C82.6179 59.8911 82.6501 59.886 82.6795 59.8734C82.709 59.8608 82.7348 59.841 82.7546 59.8159C82.7744 59.7907 82.7876 59.761 82.793 59.7294C82.7984 59.6978 82.7957 59.6654 82.7853 59.6351C82.1108 56.454 82.1798 56.4386 81.9498 56.4463C76.5841 56.569 76.7681 56.523 76.7451 56.7606ZM84.2341 59.8497H86.4417C86.49 59.8499 86.5365 59.8318 86.5721 59.7991C86.6076 59.7664 86.6295 59.7215 86.6333 59.6734C86.9553 56.155 86.9629 56.3773 86.8709 56.2853C86.779 56.1934 87.0089 56.2164 83.4292 56.431C83.4016 56.4335 83.3749 56.4419 83.3509 56.4557C83.3269 56.4695 83.3062 56.4884 83.2901 56.5109C83.2741 56.5335 83.2632 56.5593 83.2581 56.5865C83.253 56.6137 83.2538 56.6418 83.2606 56.6686C84.1038 59.9417 84.0271 59.8497 84.2341 59.8497ZM54.6997 26.7203C51.8405 28.8589 51.4419 29.0658 51.4266 29.3341C51.4266 29.7404 52.9596 31.1125 53.0133 31.1278C53.0559 31.1511 53.1049 31.1598 53.1529 31.1526C53.2009 31.1454 53.2453 31.1227 53.2792 31.088C53.313 31.0532 53.3346 31.0083 53.3406 30.9602C53.3466 30.912 53.3366 30.8632 53.3122 30.8212C53.0746 30.5069 52.4921 29.7174 52.3081 29.4568C52.6837 29.0888 54.2781 27.7397 55.0293 27.1572C55.3052 26.9426 54.9756 26.5133 54.6997 26.7203ZM65.5231 26.521C65.4759 26.484 65.4171 26.465 65.3573 26.4673C65.2974 26.4696 65.2402 26.4931 65.1961 26.5336C65.1519 26.5741 65.1235 26.6289 65.116 26.6884C65.1085 26.7478 65.1224 26.808 65.1551 26.8582C65.8416 27.7749 66.464 28.7379 67.0178 29.7404C67.0178 29.817 65.8987 31.1815 65.4464 31.879C65.4154 31.9242 65.4029 31.9796 65.4115 32.0338C65.42 32.088 65.449 32.1368 65.4924 32.1703C65.5358 32.2021 65.5881 32.2192 65.6419 32.2192C65.6956 32.2192 65.748 32.2021 65.7914 32.1703C66.2206 31.718 67.4394 30.3306 67.608 30.07C68.068 29.3265 66.5962 27.6861 65.5231 26.521ZM57.9268 27.0499C57.7918 27.006 57.6491 26.9915 57.5081 27.0073C57.3671 27.0231 57.2311 27.0688 57.1092 27.1413C56.9873 27.2139 56.8822 27.3117 56.8012 27.4281C56.7201 27.5445 56.6648 27.6769 56.639 27.8164C56.577 28.4096 56.5514 29.0061 56.5623 29.6024H55.7958C55.7199 29.6142 55.6507 29.6528 55.6008 29.7111C55.5508 29.7695 55.5234 29.8437 55.5234 29.9205C55.5234 29.9973 55.5508 30.0716 55.6008 30.1299C55.6507 30.1883 55.7199 30.2268 55.7958 30.2386L56.6007 30.3613C56.5954 30.7717 56.6236 31.1819 56.685 31.5877C56.754 32.0017 57.3365 31.9173 57.3825 31.5341C57.4132 31.1668 57.4132 30.7976 57.3825 30.4303C57.7428 30.4303 58.0954 30.4303 58.149 30.0777C58.2027 29.7251 57.7428 29.6714 57.3825 29.6407C57.3135 28.0464 57.4745 27.8087 57.5052 27.7704C57.7121 27.6094 58.0417 27.7704 57.7351 28.2533C57.6993 28.3064 57.6856 28.3714 57.6971 28.4344C57.7085 28.4975 57.7442 28.5535 57.7964 28.5906C58.1644 28.8665 58.7546 27.4408 57.9268 27.0499ZM60.4333 29.5104C60.1015 29.5334 59.7686 29.5334 59.4368 29.5104C59.3718 29.5104 59.3094 29.5363 59.2634 29.5823C59.2174 29.6283 59.1915 29.6907 59.1915 29.7557C59.1915 29.8208 59.2174 29.8832 59.2634 29.9292C59.3094 29.9752 59.3718 30.001 59.4368 30.001L60.2034 30.1007C60.6249 30.162 60.395 29.9933 60.51 31.0128C60.51 31.1206 60.5528 31.2239 60.629 31.3001C60.7051 31.3763 60.8085 31.4191 60.9162 31.4191C61.024 31.4191 61.1273 31.3763 61.2035 31.3001C61.2797 31.2239 61.3225 31.1206 61.3225 31.0128C61.318 30.7566 61.3001 30.5007 61.2688 30.2463H61.7057C61.8074 30.2463 61.9049 30.2059 61.9768 30.134C62.0486 30.0622 62.089 29.9647 62.089 29.863C62.089 29.7614 62.0486 29.6639 61.9768 29.592C61.9049 29.5201 61.8074 29.4798 61.7057 29.4798C61.0695 29.4798 61.1615 29.5258 61.1462 29.4031C61.0849 29.0505 61.0235 28.6902 60.9929 28.3376C60.9929 28.2726 60.967 28.2102 60.921 28.1642C60.875 28.1182 60.8126 28.0923 60.7476 28.0923C60.6825 28.0923 60.6201 28.1182 60.5741 28.1642C60.5281 28.2102 60.5023 28.2726 60.5023 28.3376C60.464 28.8282 60.4333 29.3265 60.4333 29.5104Z" fill="black"/>
<path d="M64.3886 29.3571C64.3495 29.039 64.3265 28.7192 64.3196 28.3989C64.3093 28.3403 64.2786 28.2872 64.2331 28.249C64.1875 28.2108 64.1299 28.1898 64.0705 28.1898C64.011 28.1898 63.9534 28.2108 63.9078 28.249C63.8623 28.2872 63.8316 28.3403 63.8213 28.3989C63.8213 28.7438 63.7753 29.0658 63.7447 29.4107C63.4511 29.429 63.1567 29.429 62.8632 29.4107C62.795 29.4219 62.733 29.4569 62.6883 29.5096C62.6435 29.5622 62.619 29.6291 62.619 29.6982C62.619 29.7673 62.6435 29.8341 62.6883 29.8867C62.733 29.9394 62.795 29.9744 62.8632 29.9856C63.1468 29.9856 63.4074 30.0316 63.6987 30.0546C63.6374 30.7291 63.576 31.4114 64.0896 31.4114C64.6032 31.4114 64.5419 30.7215 64.4806 30.0853C64.9021 30.0853 65.454 30.0853 65.4387 29.6867C65.4234 29.2881 64.8332 29.3187 64.3886 29.3571ZM48.8127 33.8566C47.8468 34.1095 47.2796 35.0677 47.1876 36.4091C47.1493 37.5206 47.4636 38.931 46.4901 39.5826C46.4226 39.6278 46.3698 39.6919 46.3385 39.7668C46.3071 39.8418 46.2985 39.9243 46.3138 40.0042C46.4517 40.6787 47.6629 39.7129 47.4176 42.5797C47.325 42.9443 47.3271 43.3265 47.4236 43.6901C47.5202 44.0536 47.7081 44.3865 47.9695 44.657C48.2111 44.8282 48.4885 44.9421 48.7808 44.9899C49.073 45.0377 49.3723 45.0182 49.6558 44.933C49.7086 44.9194 49.7554 44.8888 49.7888 44.8457C49.8222 44.8027 49.8403 44.7498 49.8403 44.6953C49.8403 44.6409 49.8222 44.588 49.7888 44.5449C49.7554 44.5019 49.7086 44.4712 49.6558 44.4577C49.1269 44.3811 48.5137 44.4577 48.2378 44.0055C48.0037 43.3851 47.9689 42.7072 48.1381 42.0661C48.2149 41.6538 48.1902 41.2289 48.066 40.8282C47.9418 40.4275 47.7218 40.0632 47.4252 39.7665C48.736 38.1645 47.065 34.9834 48.9583 34.3395C49.0075 34.3095 49.0454 34.2639 49.066 34.2101C49.0866 34.1562 49.0887 34.097 49.0721 34.0418C49.0554 33.9866 49.0209 33.9384 48.974 33.9049C48.927 33.8714 48.8703 33.8544 48.8127 33.8566ZM58.4326 34.4008C57.8577 33.7646 57.0529 34.0712 56.4396 33.9639C56.4039 33.9564 56.367 33.9559 56.3311 33.9626C56.2952 33.9693 56.261 33.983 56.2304 34.003C56.1998 34.0229 56.1734 34.0486 56.1527 34.0788C56.1321 34.1089 56.1176 34.1428 56.11 34.1785C56.1025 34.2143 56.102 34.2511 56.1087 34.287C56.1154 34.3229 56.1292 34.3572 56.1491 34.3878C56.169 34.4184 56.1948 34.4448 56.2249 34.4654C56.255 34.4861 56.2889 34.5006 56.3247 34.5081C56.9686 34.6308 57.6891 34.4468 57.9574 35.0294C58.4633 36.1485 57.3058 39.0383 58.3023 40.2648C57.4131 41.3456 58.4709 43.055 57.6738 43.8292C57.3747 44.0938 56.9842 44.2313 56.5853 44.2124C56.5259 44.2019 56.4647 44.2137 56.4134 44.2454C56.3621 44.2772 56.3244 44.3267 56.3073 44.3845C56.2902 44.4424 56.2951 44.5045 56.3209 44.559C56.3467 44.6135 56.3917 44.6566 56.4473 44.68C56.6682 44.7515 56.9011 44.7787 57.1326 44.76C57.3641 44.7413 57.5896 44.677 57.7961 44.5709C58.0027 44.4647 58.1862 44.3188 58.3362 44.1416C58.4862 43.9643 58.5998 43.7591 58.6702 43.5379C58.7727 43.0888 58.7727 42.6225 58.6702 42.1734C58.4173 40.3414 59.1992 40.8397 59.2145 40.2954C59.2298 39.7512 58.5016 40.1728 58.6319 38.5861C58.8389 36.5088 59.1072 35.1444 58.4326 34.4008Z" fill="black"/>
<path d="M50.7213 37.467C50.4764 37.4512 50.2318 37.5028 50.0142 37.6164C49.7966 37.7299 49.6143 37.901 49.4872 38.1109C49.3068 38.2791 49.1727 38.4907 49.0975 38.7256C49.0224 38.9605 49.0087 39.2107 49.0579 39.4523C49.2264 39.8292 49.5197 40.1364 49.8884 40.3221C50.257 40.5078 50.6785 40.5607 51.0816 40.4718C50.9053 41.2384 50.6983 41.591 49.7095 41.3917C49.6407 41.3874 49.5726 41.4076 49.5174 41.4487C49.4621 41.4898 49.4232 41.5492 49.4076 41.6163C49.3919 41.6834 49.4006 41.7539 49.432 41.8152C49.4634 41.8765 49.5156 41.9247 49.5792 41.9512C50.4837 42.1659 51.3422 41.9512 51.6181 41.0927C52.4767 38.9388 51.6181 37.6433 50.7213 37.467ZM50.4377 39.7666C49.9394 39.5903 49.8168 39.3834 49.7785 39.23C49.7401 39.0767 49.8475 38.8008 50.0621 38.5478C50.2767 38.2949 50.4147 38.1186 50.6293 38.2029C51.4418 38.5478 51.3575 40.1116 50.4377 39.7896V39.7666ZM54.3547 39.3374C53.0592 39.1074 52.262 40.6405 52.8216 41.361C53.0906 41.6223 53.4508 41.7685 53.8258 41.7685C54.2007 41.7685 54.5609 41.6223 54.8299 41.361C54.8299 41.5526 54.8299 41.7673 54.8759 41.8822C54.8777 41.9353 54.899 41.9858 54.9358 42.024C54.9726 42.0622 55.0223 42.0854 55.0752 42.0892C55.1288 42.0892 55.1803 42.0685 55.2189 42.0313C55.2575 41.9942 55.2802 41.9435 55.2822 41.8899C55.2822 41.5986 55.4201 40.2802 55.3895 40.1882C55.314 39.9637 55.1769 39.7649 54.994 39.6145C54.811 39.4641 54.5895 39.3681 54.3547 39.3374ZM54.6613 40.2649C54.6613 40.4948 54.3777 40.8628 54.2397 40.9394C53.8564 41.1464 53.4731 41.131 53.3812 40.9931C53.2892 40.8551 53.5881 40.0042 54.0557 40.0042C54.232 40.0042 54.6229 40.0809 54.6613 40.2649ZM99.7256 28.077C98.6141 27.8777 97.5717 29.2958 98.0086 30.4916C98.1107 30.8367 98.3311 31.1349 98.631 31.3339C98.9309 31.5329 99.2913 31.6201 99.649 31.5801C101.765 31.3578 101.328 28.376 99.7256 28.077ZM99.649 30.8059C98.6755 31.0358 98.3305 29.8017 98.8824 29.0888C98.957 28.9813 99.0552 28.8923 99.1694 28.8285C99.2837 28.7648 99.411 28.728 99.5416 28.7209C99.725 28.7539 99.8981 28.8294 100.047 28.9411C100.196 29.0529 100.317 29.198 100.4 29.3648C100.491 29.6555 100.464 29.9706 100.323 30.2408C100.182 30.511 99.9396 30.7142 99.649 30.8059ZM104.079 28.3223C104.011 28.8742 103.566 30.9285 103.558 31.4651C103.569 31.5532 103.608 31.6354 103.671 31.6985C103.733 31.7616 103.815 31.8021 103.903 31.8135C103.991 31.825 104.08 31.8067 104.156 31.7616C104.233 31.7166 104.292 31.6473 104.325 31.5647C104.447 31.0282 104.524 28.9049 104.585 28.376C104.647 28.031 104.125 27.9927 104.079 28.3223ZM101.749 31.3118C101.702 31.2981 101.653 31.2948 101.604 31.3021C101.556 31.3094 101.51 31.3272 101.469 31.3542C101.428 31.3812 101.394 31.4167 101.368 31.4584C101.342 31.5 101.326 31.5468 101.32 31.5954C101.251 32.224 100.5 32.4156 100.737 32.7452C100.77 32.7933 100.82 32.8278 100.876 32.8419C100.933 32.856 100.992 32.8489 101.044 32.8219C101.27 32.7196 101.471 32.5713 101.636 32.3865C101.801 32.2017 101.926 31.9845 102.002 31.7487C102.015 31.7034 102.018 31.656 102.012 31.6093C102.007 31.5627 101.991 31.5176 101.968 31.4769C101.944 31.4362 101.913 31.4006 101.875 31.3723C101.838 31.3439 101.795 31.3233 101.749 31.3118ZM96.3835 30.7522C96.3835 30.5815 96.3157 30.4177 96.1949 30.2969C96.0742 30.1762 95.9104 30.1083 95.7396 30.1083C95.5689 30.1083 95.4051 30.1762 95.2844 30.2969C95.1636 30.4177 95.0958 30.5815 95.0958 30.7522C95.0958 30.923 95.1636 31.0868 95.2844 31.2075C95.4051 31.3283 95.5689 31.3961 95.7396 31.3961C95.9104 31.3961 96.0742 31.3283 96.1949 31.2075C96.3157 31.0868 96.3835 30.923 96.3835 30.7522ZM77.7952 40.6175C77.7952 40.7882 77.863 40.952 77.9838 41.0728C78.1045 41.1935 78.2683 41.2614 78.4391 41.2614C78.6098 41.2614 78.7736 41.1935 78.8944 41.0728C79.0151 40.952 79.0829 40.7882 79.0829 40.6175C79.0829 40.4467 79.0151 40.2829 78.8944 40.1622C78.7736 40.0414 78.6098 39.9736 78.4391 39.9736C78.2683 39.9736 78.1045 40.0414 77.9838 40.1622C77.863 40.2829 77.7952 40.4467 77.7952 40.6175ZM39.093 60.4016C39.1029 60.3117 39.0937 60.2207 39.066 60.1345C39.0383 60.0484 38.9928 59.9691 38.9324 59.9017C38.872 59.8343 38.7981 59.7804 38.7155 59.7435C38.6329 59.7067 38.5435 59.6876 38.453 59.6876C38.3625 59.6876 38.273 59.7067 38.1904 59.7435C38.1078 59.7804 38.0339 59.8343 37.9735 59.9017C37.9131 59.9691 37.8676 60.0484 37.84 60.1345C37.8123 60.2207 37.8031 60.3117 37.8129 60.4016C37.8031 60.4916 37.8123 60.5826 37.84 60.6687C37.8676 60.7548 37.9131 60.8342 37.9735 60.9016C38.0339 60.9689 38.1078 61.0228 38.1904 61.0597C38.273 61.0966 38.3625 61.1157 38.453 61.1157C38.5435 61.1157 38.6329 61.0966 38.7155 61.0597C38.7981 61.0228 38.872 60.9689 38.9324 60.9016C38.9928 60.8342 39.0383 60.7548 39.066 60.6687C39.0937 60.5826 39.1029 60.4916 39.093 60.4016ZM43.6156 59.8574C43.6156 60.0282 43.6834 60.1919 43.8042 60.3127C43.9249 60.4334 44.0887 60.5013 44.2595 60.5013C44.4302 60.5013 44.594 60.4334 44.7147 60.3127C44.8355 60.1919 44.9033 60.0282 44.9033 59.8574C44.9033 59.6866 44.8355 59.5228 44.7147 59.4021C44.594 59.2813 44.4302 59.2135 44.2595 59.2135C44.0887 59.2135 43.9249 59.2813 43.8042 59.4021C43.6834 59.5228 43.6156 59.6866 43.6156 59.8574ZM73.4719 58.355C73.3123 58.3724 73.1647 58.4481 73.0575 58.5677C72.9503 58.6872 72.8909 58.8421 72.8909 59.0027C72.8909 59.1633 72.9503 59.3182 73.0575 59.4378C73.1647 59.5573 73.3123 59.633 73.4719 59.6504C73.6316 59.633 73.7792 59.5573 73.8864 59.4378C73.9936 59.3182 74.0529 59.1633 74.0529 59.0027C74.0529 58.8421 73.9936 58.6872 73.8864 58.5677C73.7792 58.4481 73.6316 58.3724 73.4719 58.355ZM80.9609 40.9854C81.0461 40.9875 81.1307 40.9723 81.2098 40.9407C81.2889 40.9091 81.3607 40.8617 81.4209 40.8015C81.4811 40.7413 81.5285 40.6695 81.5601 40.5904C81.5917 40.5113 81.6069 40.4266 81.6048 40.3415C81.5874 40.1819 81.5117 40.0343 81.3922 39.9271C81.2726 39.8198 81.1177 39.7605 80.9571 39.7605C80.7965 39.7605 80.6416 39.8198 80.5221 39.9271C80.4025 40.0343 80.3268 40.1819 80.3094 40.3415C80.3072 40.4273 80.3227 40.5126 80.3548 40.5922C80.3868 40.6718 80.4349 40.744 80.4959 40.8044C80.557 40.8647 80.6297 40.9119 80.7097 40.943C80.7897 40.9741 80.8752 40.9886 80.9609 40.9854ZM39.6449 23.7231C39.783 23.707 39.9104 23.6407 40.0028 23.5368C40.0953 23.433 40.1463 23.2988 40.1463 23.1597C40.1463 23.0207 40.0953 22.8865 40.0028 22.7826C39.9104 22.6788 39.783 22.6125 39.6449 22.5963C39.5068 22.6125 39.3795 22.6788 39.287 22.7826C39.1946 22.8865 39.1435 23.0207 39.1435 23.1597C39.1435 23.2988 39.1946 23.433 39.287 23.5368C39.3795 23.6407 39.5068 23.707 39.6449 23.7231ZM42.4734 23.7231C42.6115 23.707 42.7389 23.6407 42.8313 23.5368C42.9238 23.433 42.9748 23.2988 42.9748 23.1597C42.9748 23.0207 42.9238 22.8865 42.8313 22.7826C42.7389 22.6788 42.6115 22.6125 42.4734 22.5963C42.3353 22.6125 42.208 22.6788 42.1155 22.7826C42.0231 22.8865 41.972 23.0207 41.972 23.1597C41.972 23.2988 42.0231 23.433 42.1155 23.5368C42.208 23.6407 42.3353 23.707 42.4734 23.7231ZM45.5319 23.7155C45.67 23.6993 45.7974 23.633 45.8898 23.5292C45.9822 23.4253 46.0333 23.2911 46.0333 23.1521C46.0333 23.013 45.9822 22.8788 45.8898 22.775C45.7974 22.6711 45.67 22.6048 45.5319 22.5887C45.3938 22.6048 45.2664 22.6711 45.174 22.775C45.0816 22.8788 45.0305 23.013 45.0305 23.1521C45.0305 23.2911 45.0816 23.4253 45.174 23.5292C45.2664 23.633 45.3938 23.6993 45.5319 23.7155ZM42.7187 55.2275C42.7387 55.1869 42.7478 55.1418 42.7451 55.0966C42.7424 55.0514 42.7279 55.0077 42.7032 54.9698C42.6784 54.9319 42.6442 54.9011 42.6039 54.8804C42.5636 54.8598 42.5187 54.8499 42.4734 54.8519C42.2741 54.8519 42.2358 55.0589 42.0825 55.3579C41.017 57.4735 39.5836 60.3403 39.4763 60.7236C39.4478 60.8047 39.4513 60.8937 39.4862 60.9723C39.521 61.0509 39.5846 61.1132 39.6639 61.1465C39.7432 61.1798 39.8322 61.1815 39.9128 61.1514C39.9933 61.1212 40.0593 61.0614 40.0972 60.9842C40.3655 60.5626 42.4504 55.7411 42.7187 55.2275ZM44.888 54.5223C44.8652 54.4825 44.8323 54.4494 44.7926 54.4264C44.7529 54.4034 44.7078 54.3913 44.6619 54.3913C44.616 54.3913 44.5709 54.4034 44.5312 54.4264C44.4915 54.4494 44.4586 54.4825 44.4358 54.5223C43.171 57.1515 41.2393 60.8999 41.1627 61.1911C41.1514 61.2452 41.1522 61.3011 41.1649 61.3548C41.1777 61.4085 41.2022 61.4587 41.2366 61.5019C41.271 61.5451 41.3145 61.5802 41.364 61.6046C41.4135 61.6291 41.4677 61.6423 41.5229 61.6434C41.8219 61.6434 41.9215 61.5438 44.5277 55.6185C44.8957 54.8136 45.003 54.6986 44.888 54.5223ZM68.0756 60.9459C67.3277 59.8607 66.9014 58.5864 66.8458 57.2696C66.7902 55.9529 67.1075 54.6472 67.7613 53.5028C67.7979 53.448 67.8112 53.3808 67.7982 53.3161C67.7853 53.2514 67.7472 53.1945 67.6923 53.1579C67.6374 53.1213 67.5702 53.108 67.5055 53.121C67.4408 53.1339 67.3839 53.172 67.3474 53.2269C66.4596 54.3879 66.0104 55.8253 66.0791 57.2852C66.1478 58.7452 66.73 60.134 67.723 61.2065C67.7625 61.2352 67.8102 61.2505 67.859 61.2503C67.9079 61.2501 67.9554 61.2343 67.9947 61.2053C68.034 61.1762 68.063 61.1354 68.0775 61.0888C68.0921 61.0422 68.0914 60.9921 68.0756 60.9459Z" fill="black"/>
<path d="M74.4454 52.6903C73.9089 52.8972 75.0433 53.5334 74.867 57.1898C74.7137 60.2559 73.5716 61.2294 73.7555 61.536C73.7753 61.5645 73.8017 61.5877 73.8324 61.6038C73.8631 61.6199 73.8972 61.6282 73.9318 61.6282C73.9665 61.6282 74.0006 61.6199 74.0313 61.6038C74.062 61.5877 74.0884 61.5645 74.1081 61.536C74.9258 60.2495 75.4143 58.7815 75.5306 57.2616C75.6469 55.7417 75.3874 54.2165 74.775 52.8206C74.7481 52.76 74.6985 52.7124 74.6369 52.688C74.5752 52.6637 74.5065 52.6645 74.4454 52.6903ZM68.2825 57.0442C67.0407 57.9333 68.0909 59.3437 69.3557 58.9911V61.0684C69.3557 61.3827 69.0337 61.5437 68.8421 61.2754C68.8052 61.2258 68.751 61.1919 68.6903 61.1805C68.6295 61.1691 68.5667 61.1811 68.5144 61.214C68.4621 61.247 68.4242 61.2984 68.4082 61.3581C68.3922 61.4178 68.3993 61.4814 68.4282 61.536C68.5196 61.6862 68.6566 61.8034 68.8191 61.8705C68.9817 61.9377 69.1614 61.9513 69.3322 61.9095C69.503 61.8676 69.6561 61.7725 69.7692 61.6378C69.8823 61.5031 69.9495 61.3359 69.9612 61.1604C69.9612 60.9151 70.1988 57.5577 69.8846 57.1515C69.7871 57.0382 69.668 56.9455 69.5344 56.8787C69.4007 56.812 69.2551 56.7724 69.106 56.7624C68.9569 56.7524 68.8073 56.7722 68.666 56.8206C68.5246 56.8689 68.3942 56.9449 68.2825 57.0442ZM69.1794 57.5271C69.2624 57.6121 69.3144 57.7227 69.3269 57.8409C69.3394 57.9591 69.3117 58.0781 69.2483 58.1786C69.0797 58.3626 68.4818 58.3013 68.3975 57.9947C68.3132 57.688 68.9034 57.3354 69.1794 57.5271ZM71.5096 56.9138C71.2459 56.9665 71.0066 57.1039 70.8281 57.3051C70.6496 57.5063 70.5418 57.7603 70.5209 58.0285C70.5001 58.2966 70.5674 58.5642 70.7127 58.7906C70.858 59.0169 71.0732 59.1897 71.3256 59.2824C71.5344 59.3606 71.7628 59.3692 71.9769 59.3071C72.191 59.2449 72.3793 59.1153 72.5138 58.9375C72.5412 58.8893 72.552 58.8335 72.5446 58.7786C72.5372 58.7237 72.5119 58.6727 72.4728 58.6336C72.4336 58.5944 72.3826 58.5691 72.3277 58.5617C72.2728 58.5543 72.217 58.5652 72.1688 58.5925C71.9619 58.7152 71.2337 58.7152 71.18 58.1173C71.1675 57.9987 71.1917 57.8792 71.2493 57.7748C71.3069 57.6704 71.3951 57.5862 71.5021 57.5335C71.6091 57.4809 71.7296 57.4623 71.8475 57.4803C71.9653 57.4984 72.0748 57.5521 72.1612 57.6344C72.215 57.6852 72.2869 57.7125 72.3609 57.7104C72.435 57.7082 72.5051 57.6768 72.5559 57.6229C72.6067 57.569 72.6341 57.4972 72.6319 57.4231C72.6298 57.3491 72.5983 57.2789 72.5444 57.2281C72.4098 57.0965 72.2455 56.9993 72.0654 56.9446C71.8853 56.8899 71.6947 56.8793 71.5096 56.9138ZM34.9921 23.9147C35.0679 23.9394 35.1496 23.9394 35.2254 23.9146C35.3012 23.8898 35.3672 23.8415 35.4137 23.7767C35.59 23.5391 36.0959 21.3622 36.2492 20.8409C36.2695 20.7748 36.2628 20.7034 36.2304 20.6423C36.1981 20.5812 36.1428 20.5355 36.0767 20.5151C36.0107 20.4948 35.9392 20.5016 35.8781 20.5339C35.817 20.5662 35.7713 20.6215 35.751 20.6876C35.0151 22.8416 34.4095 23.7307 34.9921 23.9147ZM57.5741 94.5428C56.9455 95.2543 56.2749 95.9275 55.5658 96.5588C55.5266 96.5973 55.4955 96.6433 55.4743 96.6939C55.453 96.7446 55.4421 96.799 55.4421 96.8539C55.4421 96.9089 55.453 96.9632 55.4743 97.0139C55.4955 97.0646 55.5266 97.1105 55.5658 97.149C56.156 97.6779 56.7769 98.1609 57.3441 98.6821C57.3858 98.7144 57.437 98.732 57.4898 98.732C57.5425 98.732 57.5937 98.7144 57.6354 98.6821C57.6684 98.6422 57.6865 98.5921 57.6865 98.5403C57.6865 98.4885 57.6684 98.4384 57.6354 98.3985C57.2291 97.8696 56.8229 97.3483 56.3936 96.8654C56.9849 96.2513 57.5282 95.5927 58.0187 94.8954C58.2563 94.5965 57.7887 94.2669 57.5741 94.5428ZM83.5518 97.3713C83.6438 97.3713 83.5518 97.3713 84.5406 96.7198C86.3726 95.432 86.5566 95.3477 86.5029 94.9798C86.434 94.4432 85.7364 94.3589 83.8584 93.4467C83.7873 93.407 83.7033 93.3973 83.6249 93.4196C83.5466 93.4419 83.4803 93.4943 83.4407 93.5655C83.401 93.6367 83.3913 93.7206 83.4135 93.799C83.4358 93.8773 83.4883 93.9436 83.5595 93.9833C83.9121 94.1826 85.0235 94.8801 85.4528 95.1407C84.3413 96.1832 83.3985 97.0494 83.3985 97.0494C83.3784 97.0792 83.3663 97.1138 83.3637 97.1497C83.361 97.1856 83.3677 97.2216 83.3832 97.2541C83.3987 97.2867 83.4224 97.3146 83.4519 97.3351C83.4815 97.3557 83.5159 97.3682 83.5518 97.3713ZM78.0175 96.0606C79.0446 96.0606 80.0181 95.8919 81.0069 95.8459C81.0781 95.8459 81.1463 95.8177 81.1966 95.7674C81.2469 95.717 81.2752 95.6488 81.2752 95.5776C81.2752 95.5065 81.2469 95.4382 81.1966 95.3879C81.1463 95.3376 81.0781 95.3094 81.0069 95.3094C80.0028 95.3094 79.0446 95.1484 78.0175 95.2174C77.9056 95.2174 77.7984 95.2618 77.7193 95.3409C77.6403 95.4199 77.5959 95.5272 77.5959 95.639C77.5959 95.7508 77.6403 95.858 77.7193 95.9371C77.7984 96.0161 77.9056 96.0606 78.0175 96.0606ZM72.3221 96.2752C72.8127 96.2752 74.9283 96.0529 75.1583 96.0376C75.2274 96.0376 75.2937 96.0101 75.3426 95.9612C75.3915 95.9124 75.4189 95.8461 75.4189 95.7769C75.4189 95.7078 75.3915 95.6415 75.3426 95.5927C75.2937 95.5438 75.2274 95.5163 75.1583 95.5163C74.9283 95.5163 72.8127 95.3783 72.3221 95.4397C72.2211 95.4534 72.1284 95.5033 72.0613 95.5801C71.9942 95.6569 71.9573 95.7554 71.9573 95.8574C71.9573 95.9594 71.9942 96.0579 72.0613 96.1348C72.1284 96.2116 72.2211 96.2615 72.3221 96.2752ZM65.3774 95.7846C65.324 95.7856 65.2714 95.7971 65.2225 95.8184C65.1736 95.8398 65.1293 95.8706 65.0923 95.909C65.0553 95.9474 65.0262 95.9928 65.0067 96.0425C64.9873 96.0921 64.9777 96.1452 64.9788 96.1985C64.9788 96.6508 65.4463 96.6278 65.7453 96.6278C66.6254 96.5875 67.5029 96.5031 68.3745 96.3748C68.4427 96.3637 68.5047 96.3286 68.5494 96.276C68.5941 96.2233 68.6187 96.1565 68.6187 96.0874C68.6187 96.0183 68.5941 95.9515 68.5494 95.8988C68.5047 95.8462 68.4427 95.8111 68.3745 95.7999C67.8609 95.8383 65.8679 95.7693 65.3774 95.7846ZM62.2882 96.2062C61.721 96.2062 59.5594 96.1065 59.0075 96.2062C58.9058 96.2062 58.8084 96.2466 58.7365 96.3185C58.6646 96.3903 58.6242 96.4878 58.6242 96.5895C58.6242 96.6911 58.6646 96.7886 58.7365 96.8605C58.8084 96.9323 58.9058 96.9727 59.0075 96.9727C59.5824 97.0494 61.7287 96.8348 62.2882 96.8118C62.3685 96.8118 62.4456 96.7799 62.5023 96.7231C62.5591 96.6663 62.591 96.5893 62.591 96.509C62.591 96.4287 62.5591 96.3517 62.5023 96.2949C62.4456 96.2381 62.3685 96.2062 62.2882 96.2062ZM32.6388 12.3401C32.4611 12.1184 32.23 11.9455 31.9672 11.8375C31.7044 11.7295 31.4185 11.69 31.1363 11.7227C30.854 11.7553 30.5847 11.8591 30.3535 12.0242C30.1223 12.1894 29.9368 12.4105 29.8143 12.6669C29.6919 12.9233 29.6365 13.2065 29.6535 13.4901C29.6704 13.7738 29.759 14.0485 29.911 14.2885C30.063 14.5285 30.2735 14.726 30.5227 14.8625C30.7719 14.999 31.0516 15.07 31.3357 15.0689C31.6541 15.0739 31.9673 14.9874 32.238 14.8196C32.5086 14.6518 32.7255 14.4099 32.8627 14.1225C32.9999 13.8352 33.0518 13.5145 33.0121 13.1985C32.9724 12.8825 32.8429 12.5846 32.6388 12.3401ZM32.2172 13.8732C32.1206 14.0534 31.9701 14.1989 31.7868 14.2894C31.6034 14.3799 31.3963 14.4109 31.1945 14.378C30.9927 14.345 30.8062 14.2499 30.6611 14.1057C30.516 13.9616 30.4195 13.7758 30.3852 13.5742C30.3484 13.4296 30.3446 13.2786 30.374 13.1323C30.4033 12.986 30.4652 12.8482 30.5549 12.729C30.6447 12.6098 30.7601 12.5123 30.8926 12.4436C31.0251 12.375 31.1713 12.337 31.3204 12.3324C31.4943 12.3471 31.6619 12.4039 31.8089 12.498C31.9558 12.5921 32.0776 12.7206 32.1636 12.8723C32.2497 13.0241 32.2975 13.1946 32.3028 13.369C32.3082 13.5434 32.2709 13.7164 32.1943 13.8732H32.2172ZM39.8596 12.5317C39.6386 12.2429 39.3291 12.0345 38.9785 11.9383C38.6278 11.8421 38.2553 11.8635 37.918 11.9991C37.5806 12.1348 37.297 12.3772 37.1105 12.6894C36.924 13.0015 36.845 13.3662 36.8854 13.7275C36.9196 14.0896 37.0684 14.4312 37.3102 14.7029C37.5519 14.9746 37.874 15.1621 38.2296 15.2382C38.5852 15.3143 38.9558 15.2749 39.2875 15.126C39.6193 14.977 39.8948 14.7261 40.0742 14.4097C40.2084 14.1058 40.2593 13.7717 40.2216 13.4416C40.1839 13.1115 40.0589 12.7975 39.8596 12.5317ZM38.0199 12.6927C38.2114 12.5667 38.4415 12.513 38.669 12.5411C38.8965 12.5692 39.1065 12.6772 39.2617 12.846C39.4045 13.0142 39.4963 13.2198 39.5261 13.4384C39.556 13.6571 39.5228 13.8797 39.4303 14.0801C39.3324 14.2523 39.1851 14.3911 39.0074 14.4785C38.8298 14.566 38.6299 14.5981 38.4338 14.5707C38.2305 14.5363 38.0419 14.4423 37.892 14.3007C37.7421 14.1591 37.6376 13.9762 37.5916 13.7751C37.5457 13.5741 37.5604 13.364 37.6339 13.1713C37.7074 12.9786 37.8364 12.812 38.0046 12.6927H38.0199ZM47.0573 12.731C46.8797 12.5096 46.649 12.3368 46.3865 12.2288C46.1241 12.1208 45.8386 12.0811 45.5566 12.1134C45.2746 12.1457 45.0055 12.2489 44.7743 12.4135C44.543 12.578 44.3573 12.7985 44.2344 13.0543C44.1115 13.3101 44.0555 13.5929 44.0716 13.8763C44.0877 14.1596 44.1753 14.4343 44.3264 14.6745C44.4774 14.9148 44.6869 15.1129 44.9352 15.2502C45.1836 15.3876 45.4627 15.4597 45.7465 15.4599C46.0656 15.4663 46.3798 15.3809 46.6516 15.2137C46.9234 15.0465 47.1414 14.8047 47.2796 14.517C47.4178 14.2294 47.4703 13.908 47.4309 13.5914C47.3915 13.2747 47.2618 12.976 47.0573 12.731ZM46.628 14.2641C46.5371 14.41 46.4101 14.5301 46.2594 14.6129C46.1087 14.6958 45.9393 14.7385 45.7673 14.737C45.5954 14.7356 45.4267 14.69 45.2774 14.6046C45.1281 14.5192 45.0033 14.397 44.9148 14.2495C44.8263 14.1021 44.7772 13.9344 44.7722 13.7625C44.7671 13.5906 44.8062 13.4203 44.8859 13.2679C44.9655 13.1155 45.0829 12.9861 45.2269 12.8921C45.3709 12.7981 45.5366 12.7426 45.7082 12.731C45.8858 12.7372 46.059 12.7878 46.212 12.878C46.3651 12.9682 46.4932 13.0953 46.5846 13.2477C46.676 13.4 46.7279 13.5728 46.7355 13.7504C46.743 13.9279 46.7061 14.1045 46.628 14.2641Z" fill="black"/>
<path d="M112.427 25.5014C112.646 25.0549 112.746 24.5598 112.72 24.0634C112.693 23.5669 112.539 23.0856 112.274 22.6653C111.653 21.7454 110.403 21.7761 109.399 21.7991C106.295 21.8757 33.4208 19.6451 33.3441 19.6375C32.8997 19.5302 32.4311 19.596 32.0333 19.8214C30.8146 20.7106 30.8529 23.8764 32.225 24.6736C32.6306 24.8564 33.0806 24.9177 33.5204 24.8499L110.051 26.8965C110.535 26.8949 111.01 26.765 111.427 26.5199C111.845 26.2748 112.19 25.9234 112.427 25.5014ZM37.675 20.611C37.2578 21.5836 36.912 22.5853 36.6402 23.6081C36.6381 23.6537 36.6453 23.6992 36.6613 23.7419C36.6773 23.7846 36.7019 23.8236 36.7334 23.8566C36.7649 23.8895 36.8028 23.9157 36.8448 23.9336C36.8867 23.9515 36.9319 23.9607 36.9775 23.9607C37.3224 23.9607 37.3837 23.6464 37.905 21.7608C38.1886 20.7029 38.2652 20.6723 38.1273 20.5266C49.1116 20.8716 110.013 22.5656 110.135 22.5733C111.078 22.5733 111.592 22.8646 111.799 23.4088C111.955 23.7759 111.998 24.1812 111.923 24.573C111.848 24.9648 111.658 25.3254 111.377 25.6087C111.038 25.8462 110.656 26.0145 110.252 26.1039C109.848 26.1934 109.431 26.2022 109.024 26.13C104.555 25.9767 32.8075 24.1447 32.7309 24.1293C31.7267 23.884 31.6424 21.5155 32.2556 20.588C32.4779 20.2584 32.8152 20.2737 33.3441 20.3427C38.3266 20.588 37.744 20.4117 37.675 20.611ZM62.9092 66.1812C62.9092 65.4147 63.5531 65.7519 35.3141 66.5108C35.152 66.4993 34.9896 66.5267 34.8402 66.5907C34.6909 66.6547 34.559 66.7534 34.4556 66.8787C34.1643 67.3157 34.6702 90.8022 34.6855 91.0245C34.6895 91.1214 34.7308 91.213 34.8008 91.2802C34.8708 91.3473 34.9641 91.3848 35.0611 91.3847C35.0611 91.3847 38.0736 91.2774 40.7105 91.2008C63.852 90.5339 63.5531 90.2043 63.5301 89.89C63.4688 89.2998 62.9169 66.5875 62.9092 66.1812ZM35.0918 67.4077C35.0918 67.354 35.2374 67.308 35.3141 67.3003C36.3336 67.3003 61.2382 66.5338 62.1427 66.5338C62.2117 68.8334 62.8555 88.3953 62.9092 89.5834C58.9692 89.8363 38.3112 90.5645 35.4444 90.6259C34.9922 84.3633 35.0458 67.8676 35.0918 67.4077Z" fill="black"/>
<path d="M36.4025 88.6406C37.0004 88.2037 48.2301 78.76 48.6057 78.4534C51.5721 80.822 59.912 87.4832 61.6904 88.9242C61.9663 89.1465 62.3189 88.7479 62.0506 88.518C58.8772 85.8811 50.8133 79.3196 49.1806 77.9705C49.9471 77.3726 59.5824 69.3087 60.8088 68.3199C61.0695 68.0976 60.7322 67.7143 60.4639 67.9213C57.2981 70.4662 49.8245 76.4988 48.5827 77.5029C46.2064 75.6249 38.5335 69.715 36.6861 68.3812C36.6349 68.3514 36.5745 68.3412 36.5163 68.3524C36.4581 68.3637 36.4059 68.3956 36.3694 68.4424C36.3329 68.4892 36.3146 68.5476 36.3179 68.6068C36.3212 68.666 36.3458 68.722 36.3872 68.7645C39.0164 70.9108 47.8085 77.8249 48.0078 77.9629C45.4936 80.0555 36.8318 87.3452 36.0192 88.1654C35.9562 88.2162 35.916 88.29 35.9073 88.3705C35.8987 88.451 35.9224 88.5316 35.9733 88.5946C36.0241 88.6577 36.0979 88.6979 36.1784 88.7065C36.2589 88.7152 36.3395 88.6914 36.4025 88.6406ZM91.3321 85.9501C88.7949 83.8651 83.5211 79.2813 82.517 78.4074C84.7629 76.4298 91.7154 69.9756 93.1104 68.7032C93.1623 68.6544 93.1926 68.587 93.1948 68.5158C93.1969 68.4447 93.1707 68.3756 93.1219 68.3237C93.0731 68.2719 93.0058 68.2416 92.9346 68.2394C92.8634 68.2372 92.7943 68.2634 92.7425 68.3122C91.7077 69.2704 82.2717 77.6409 81.9651 77.9169C80.7233 76.8361 70.95 68.1973 70.5668 67.8753C70.5188 67.8382 70.4588 67.8201 70.3983 67.8246C70.3379 67.8291 70.2812 67.8558 70.2393 67.8996C70.1973 67.9435 70.1731 68.0013 70.1713 68.0619C70.1695 68.1225 70.1903 68.1817 70.2295 68.2279C70.8657 68.8795 79.6732 76.9817 81.3519 78.4611C80.455 79.2276 71.5709 87.0846 70.6204 87.9278C70.585 87.9557 70.5596 87.9945 70.5483 88.0382C70.5369 88.0819 70.5402 88.1282 70.5576 88.1699C70.5749 88.2115 70.6055 88.2464 70.6445 88.2691C70.6835 88.2918 70.7289 88.3012 70.7737 88.2957C71.134 88.2957 81.1756 79.5572 81.8808 78.944C83.5595 80.3621 89.4618 85.1682 90.9488 86.3564C91.2554 86.571 91.608 86.1801 91.3321 85.9501ZM15.7445 123.41C15.7445 123.41 36.6171 122.215 36.9927 122.184C37.0526 122.18 37.1106 122.161 37.162 122.131C37.2135 122.1 37.257 122.057 37.2891 122.007C37.3212 121.956 37.3409 121.898 37.3466 121.839C37.3524 121.779 37.3441 121.719 37.3223 121.663C37.3607 116.604 37.8896 107.099 37.5676 106.608C37.4633 106.48 37.3261 106.383 37.1707 106.328C37.0153 106.273 36.8477 106.261 36.6861 106.294L15.8595 107.321C15.7618 107.325 15.6693 107.366 15.601 107.436C15.5326 107.506 15.4934 107.599 15.4916 107.697C15.3612 110.709 15.093 122.813 15.1619 123.027C15.1975 123.15 15.2757 123.256 15.3825 123.326C15.4893 123.397 15.6177 123.426 15.7445 123.41ZM36.9237 107.221C36.9237 107.85 36.8854 110.54 36.6325 121.433C34.5245 121.517 16.3654 122.598 15.9361 122.621C15.9361 121.004 16.1968 109.881 16.2657 108.057L36.7321 107.03C36.7823 107.032 36.83 107.052 36.8655 107.088C36.9011 107.123 36.9218 107.171 36.9237 107.221ZM44.0065 121.295C44.1061 121.655 44.4511 121.67 44.8113 121.64C67.1327 119.907 65.9829 120.513 66.1362 120.229C66.1975 120.107 66.0826 120.735 66.3509 112.717C66.3509 111.729 66.6498 105.228 66.4045 104.853C66.3013 104.724 66.1642 104.626 66.0085 104.57C65.8527 104.515 65.6846 104.504 65.523 104.538C65.4157 104.538 45.7618 105.504 44.704 105.566C44.605 105.568 44.5106 105.608 44.4406 105.678C44.3706 105.748 44.3304 105.842 44.3284 105.941C44.2058 108.77 43.9298 121.034 44.0065 121.295ZM44.773 120.866C44.773 119.202 45.0413 108.057 45.1026 106.301L65.6763 105.274C65.8526 105.274 65.8526 104.148 65.4923 119.662C63.3614 119.754 45.2253 120.835 44.75 120.866H44.773ZM70.6281 119.424C70.7354 119.777 71.0727 119.792 71.4406 119.762C93.762 118.022 92.6122 118.635 92.7655 118.351C92.8268 118.236 92.7118 118.819 92.9801 110.847C92.9801 109.835 93.2791 103.366 93.0338 102.975C92.9306 102.846 92.7934 102.748 92.6377 102.692C92.482 102.637 92.3139 102.626 92.1523 102.66L71.3333 103.688C71.2343 103.69 71.1399 103.73 71.0699 103.8C70.9999 103.87 70.9597 103.964 70.9577 104.063C70.8274 107.037 70.5591 119.141 70.6281 119.424ZM71.7089 104.439L92.2826 103.412C92.4589 103.412 92.4512 102.3 92.0986 117.799C89.9907 117.876 71.8239 118.957 71.4023 118.988C71.3793 118.88 71.6399 106.286 71.7089 104.408V104.439Z" fill="black"/>
<path d="M35.8276 107.589C33.528 109.375 27.5261 113.645 26.6753 114.266C25.9777 113.844 18.1208 109.138 17.2699 108.609C17.215 108.573 17.1483 108.561 17.0843 108.574C17.0203 108.588 16.9644 108.627 16.9288 108.682C16.8932 108.736 16.8809 108.803 16.8946 108.867C16.9082 108.931 16.9467 108.987 17.0016 109.023C18.1438 109.789 24.5443 113.852 25.993 114.756C25.5331 115.086 17.6609 120.751 17.1933 121.134C17.153 121.166 17.1238 121.21 17.11 121.26C17.0961 121.309 17.0982 121.362 17.1161 121.41C17.1339 121.459 17.1665 121.5 17.2092 121.529C17.252 121.558 17.3027 121.572 17.3542 121.571C17.6149 121.571 26.5526 115.37 26.7596 115.216C28.5609 116.266 35.0228 119.861 35.7356 120.237C35.7814 120.266 35.8363 120.278 35.89 120.269C35.9437 120.261 35.9924 120.233 36.0269 120.191C36.0495 120.139 36.0542 120.08 36.0404 120.025C36.0265 119.969 35.9949 119.92 35.9503 119.884C33.0988 118.198 30.2166 116.45 27.4265 114.756C29.0898 113.522 36.1342 108.026 36.1342 108.026C36.1922 107.986 36.2316 107.923 36.2438 107.854C36.256 107.784 36.2401 107.712 36.1994 107.654C36.1587 107.596 36.0967 107.557 36.027 107.545C35.9573 107.533 35.8856 107.549 35.8276 107.589ZM65.0554 105.627C64.4576 106.049 55.2515 112.441 54.554 112.94C52.8906 111.797 47.4789 108.026 46.2601 107.083C45.9995 106.884 45.6852 107.29 45.9382 107.49C48.0001 109.115 52.722 112.618 53.8641 113.438C52.1547 114.71 46.4058 118.681 45.3096 119.769C45.2823 119.796 45.2634 119.83 45.2553 119.867C45.2473 119.904 45.2504 119.943 45.2644 119.978C45.2783 120.013 45.3025 120.044 45.3337 120.065C45.365 120.087 45.4019 120.098 45.4399 120.099C45.5472 120.099 46.1068 119.785 54.508 113.882C56.386 115.124 62.4569 118.742 63.8213 119.47C63.8634 119.488 63.9105 119.49 63.954 119.476C63.9975 119.463 64.0346 119.434 64.0587 119.395C64.0827 119.356 64.0921 119.31 64.0851 119.265C64.0781 119.219 64.0553 119.178 64.0206 119.149C62.8862 118.382 55.7651 113.783 55.2055 113.384C56.5853 112.411 64.7718 106.401 65.3237 106.003C65.3735 105.967 65.4072 105.913 65.4172 105.853C65.4273 105.792 65.413 105.73 65.3774 105.681C65.3418 105.631 65.2879 105.597 65.2275 105.587C65.1672 105.577 65.1053 105.591 65.0554 105.627ZM82.2717 110.732C84.1727 112.004 89.937 116.029 91.1788 116.979C91.2045 117.001 91.2342 117.017 91.2661 117.027C91.2981 117.038 91.3318 117.041 91.3653 117.039C91.3987 117.036 91.4313 117.026 91.4611 117.011C91.4909 116.995 91.5174 116.974 91.5391 116.949C91.5607 116.923 91.5771 116.893 91.5873 116.861C91.5974 116.829 91.6012 116.796 91.5984 116.762C91.5955 116.729 91.5861 116.696 91.5707 116.666C91.5552 116.636 91.5341 116.61 91.5084 116.588C90.5196 115.822 84.4257 111.269 82.9923 110.257C83.7588 109.759 90.8185 104.891 91.6617 104.331C91.6909 104.313 91.7162 104.29 91.7363 104.262C91.7563 104.234 91.7707 104.202 91.7785 104.169C91.7863 104.135 91.7875 104.101 91.7819 104.067C91.7763 104.033 91.7642 104 91.746 103.971C91.7279 103.942 91.7042 103.917 91.6763 103.897C91.6484 103.877 91.6168 103.862 91.5834 103.854C91.5499 103.847 91.5152 103.845 91.4813 103.851C91.4474 103.857 91.415 103.869 91.3858 103.887C90.6959 104.339 82.6473 109.437 82.1874 109.736C80.6007 108.739 75.2886 105.627 73.8629 104.968C73.808 104.941 73.7449 104.938 73.6874 104.958C73.6299 104.978 73.5827 105.02 73.5563 105.075C73.3876 105.397 73.426 105.167 81.4669 110.211C79.2209 111.744 72.2685 116.673 71.5633 117.225C71.5248 117.265 71.4998 117.316 71.4915 117.371C71.4833 117.425 71.4923 117.482 71.5173 117.531C71.5501 117.579 71.6 117.613 71.657 117.626C71.7139 117.639 71.7736 117.63 71.8239 117.6C72.6518 117.125 82.2717 110.732 82.2717 110.732Z" fill="black"/>
<path d="M149.473 132.954C148.63 132.762 144.108 132.149 120.445 128.661C119.945 127.959 119.557 127.183 119.295 126.362C119.195 124.062 118.605 116.765 118.414 115.339C118.03 112.503 117.256 109.667 117.317 106.746C118.138 106.57 118.95 106.378 119.732 106.164C119.799 106.142 119.857 106.1 119.898 106.044C119.94 105.987 119.962 105.919 119.962 105.849C119.972 102.983 119.762 100.121 119.333 97.2871C120.621 95.8613 120.575 93.1785 120.529 90.9939C120.529 89.0009 120.598 87.6058 120.591 74.1302C122.944 72.2829 122.407 68.1819 122.124 66.097C122.806 65.6217 122.837 65.6217 122.844 65.5067C122.785 64.7593 122.631 64.0225 122.384 63.3144C122.222 62.9428 121.984 62.6088 121.687 62.3333C121.947 61.95 121.993 61.9194 121.94 61.7967C121.503 60.8999 121.173 60.2637 120.744 59.5814V52.859C122.12 53.0104 123.506 52.6829 124.669 51.9315C124.711 51.9091 124.743 51.8719 124.759 51.8271C124.775 51.7823 124.774 51.7331 124.756 51.689C124.738 51.645 124.704 51.6093 124.661 51.5889C124.618 51.5686 124.568 51.565 124.523 51.5789C123.48 51.8318 122.729 51.7092 122.285 51.2033C121.188 49.9768 122.078 46.7421 122.515 45.5923C123.542 42.7254 124.814 42.6258 125.121 40.5638C125.295 39.0778 124.965 37.5764 124.184 36.3004C123.403 35.0243 122.216 34.0477 120.813 33.5271C120.813 33.4657 121.02 21.8375 121.027 21.4772C121.104 18.1735 121.204 13.6509 117.509 12.1562C116.676 11.8772 115.795 11.7652 114.918 11.8266C114.757 11.8266 33.7656 9.23571 33.1984 9.19739C31.6682 9.02153 30.1212 9.05246 28.5992 9.28937C24.7666 10.1172 24.7129 13.8886 24.6899 16.3415C24.6899 16.5484 24.7359 37.9499 24.7666 58.3167C22.1834 58.2553 11.8889 58.24 9.73491 58.3167C7.91823 58.3167 6.33151 58.447 5.31969 59.2212C4.82566 59.6117 4.42486 60.1074 4.14642 60.6723C3.86797 61.2371 3.71888 61.8569 3.70998 62.4866C3.70998 69.9909 4.47651 115.017 4.06258 130.01C4.00892 131.957 4.88277 133.49 6.36217 133.943C5.45 135.177 6.36217 136.579 7.66527 137.162C17.7605 139.339 47.0496 145.594 49.3645 145.594C50.5527 145.594 110.196 139.791 145.863 136.349C147.917 136.349 149.949 135.299 149.696 133.398C149.604 132.938 149.604 132.984 149.473 132.954ZM117.578 114.825C118.053 118.589 118.207 122.414 118.49 126.201C117.7 126.502 116.827 126.502 116.037 126.201C113.738 121.839 110.097 115.921 110.672 110.778C110.848 109.122 110.917 108.394 109.974 107.014C110.794 106.961 111.63 106.884 112.504 106.746C112.665 106.746 112.726 106.746 113.27 103.757C114.366 107.129 114.366 107.359 114.635 107.298L116.612 106.876C116.513 109.567 117.21 112.196 117.578 114.825ZM95.0498 133.13C96.1382 134.311 99.143 132.593 100.5 131.712C100.53 131.694 100.554 131.668 100.569 131.637C100.584 131.605 100.589 131.57 100.584 131.536C100.56 131.376 100.57 131.213 100.612 131.058C100.654 130.902 100.728 130.757 100.829 130.631C100.85 130.601 100.876 130.575 100.906 130.556C100.936 130.536 100.97 130.522 101.006 130.516C101.128 130.516 101.366 130.738 101.481 131.16C101.596 131.582 102.7 131.329 103.014 131.16C103.144 131.083 103.152 131.099 103.014 128.86C106.509 129.512 113.401 130.7 115.892 131.16C115.968 131.49 116.045 131.812 116.129 132.118C107.698 132.885 48.8126 138.143 47.3332 138.25C46.4671 138.051 28.7219 134.885 28.101 134.778C44.2441 133.452 86.411 130.003 97.587 129.044C96.0999 131.283 94.8351 131.574 94.7815 131.835C94.7155 132.056 94.7055 132.29 94.7523 132.516C94.7991 132.742 94.9013 132.953 95.0498 133.13ZM93.7467 101.403C89.3774 101.549 32.7232 103.557 29.3198 102.714C26.5756 102.369 25.2878 100.001 25.4871 95.6774C25.5331 93.3778 25.3415 26.199 25.3031 17.292C37.7669 17.8592 112.22 19.9365 120.284 20.0055C120.284 21.4235 120.154 28.4373 120.069 33.2741C117.509 32.6149 114.343 33.1898 114.803 35.704C114.811 35.7456 114.833 35.7833 114.865 35.8113C115.154 36.0377 115.396 36.3196 115.576 36.6406C115.755 36.9615 115.869 37.315 115.91 37.6804C115.952 38.0458 115.92 38.4157 115.817 38.7687C115.714 39.1216 115.541 39.4505 115.309 39.736C115.125 39.9506 115.639 40.8858 115.393 44.1665C115.064 48.5741 117.325 51.8318 119.908 52.6367C119.908 53.6332 119.87 57.3432 119.87 58.217C117.18 54.0241 115.761 53.2959 111.285 50.3907C111.055 50.2374 111.047 50.6437 111.875 47.4933C112.405 47.3232 112.89 47.0367 113.295 46.6547C113.699 46.2727 114.013 45.8049 114.213 45.2856C114.382 43.5011 114.382 41.7045 114.213 39.9199C114.417 39.2374 114.465 38.5175 114.352 37.8141C114.239 37.1106 113.969 36.4417 113.561 35.8573C112.861 34.6746 111.808 33.7415 110.549 33.1898C108.104 32.1626 105.835 33.1898 103.827 34.0713C101.527 35.1521 101.665 35.8037 101.949 38.3026C101.952 38.5018 102.001 38.6976 102.093 38.8745C102.185 39.0514 102.316 39.2046 102.477 39.322C101.941 41.1234 101.167 44.4425 101.749 46.2208C101.972 46.8587 102.322 47.4453 102.776 47.9457C103.23 48.4461 103.78 48.8501 104.394 49.1336C104.34 49.3636 104.225 49.7928 104.141 50.1148C103.765 50.0151 103.075 49.8465 102.669 49.7545C100.086 48.5511 97.7403 47.179 95.0881 47.4549C94.883 47.484 94.6883 47.5629 94.5209 47.6849C94.1327 47.3118 93.6776 47.0153 93.1794 46.811C92.7655 46.0445 85.8821 35.0065 85.7977 34.8762C85.4528 34.3319 85.1615 33.8567 85.4145 33.3048C85.6674 32.7529 86.342 31.7717 86.2653 30.9592L92.5509 30.9209C92.7542 30.9209 92.9491 30.8401 93.0929 30.6964C93.2366 30.5526 93.3174 30.3576 93.3174 30.1543V28.0387C93.3174 27.8354 93.2366 27.6404 93.0929 27.4967C92.9491 27.3529 92.7542 27.2722 92.5509 27.2722H69.7543C69.551 27.2722 69.356 27.3529 69.2122 27.4967C69.0685 27.6404 68.9877 27.8354 68.9877 28.0387V30.5069C68.9877 30.7102 69.0685 30.9052 69.2122 31.049C69.356 31.1927 69.551 31.2735 69.7543 31.2735L78.4084 31.1891C79.251 32.6463 80.5077 33.8203 82.0187 34.5619C82.3407 34.7305 82.31 34.7535 82.9309 38.0419C83.9427 43.3387 84.9852 48.8194 88.2966 53.1962C88.2353 53.3495 88.1893 53.5029 88.1357 53.6562C88.1199 53.7072 88.1164 53.7613 88.1256 53.814C88.1348 53.8666 88.1564 53.9163 88.1886 53.959C88.2208 54.0017 88.2627 54.0361 88.3108 54.0594C88.3589 54.0827 88.4118 54.0943 88.4653 54.0931C88.7187 54.0859 88.9708 54.1328 89.2047 54.2306C89.4387 54.3284 89.6491 54.4749 89.822 54.6603C89.6917 56.1551 89.983 56.9599 91.7537 58.286C92.1983 58.6156 95.1954 60.2483 95.9849 60.6622C95.6323 62.0573 95.3334 63.4831 95.0498 64.9165C87.0089 65.1848 69.417 65.3458 68.9877 65.683C68.8598 65.7842 68.7571 65.9137 68.688 66.0614C68.6188 66.2091 68.5849 66.3708 68.5891 66.5339C68.4665 69.6 68.2059 87.1076 68.2289 87.9124C68.2289 89.4455 68.4818 90.3806 70.1145 90.212C71.3027 90.212 85.9894 89.8364 92.0143 89.6831C91.9223 90.6949 91.8917 90.7103 92.0143 90.7946C92.7035 91.3179 93.483 91.7103 94.3139 91.952C93.7686 95.071 93.5758 98.2413 93.739 101.403H93.7467ZM107.314 54.8826C105.482 55.0972 102.577 54.806 102.056 53.1196C101.857 52.3531 102.585 50.981 102.976 50.5057L104.309 50.82C104.391 50.8387 104.476 50.8253 104.548 50.7824C104.619 50.7395 104.671 50.6705 104.693 50.59C104.792 50.1608 104.915 49.7009 104.999 49.3636C105.298 49.4632 105.62 49.5859 105.689 49.3023C105.697 49.2721 105.699 49.2406 105.695 49.2096C105.691 49.1786 105.681 49.1487 105.665 49.1216C105.65 49.0946 105.629 49.0709 105.604 49.0519C105.579 49.0329 105.551 49.019 105.521 49.011C103.221 48.3748 101.972 46.1135 102.454 43.4843C102.695 41.7511 103.038 40.0336 103.482 38.3409C104.149 39.0894 105.042 39.5994 106.026 39.7931C107.01 39.9869 108.03 39.8537 108.932 39.414C108.741 40.8175 108.851 42.2456 109.256 43.6031C109.66 44.9606 110.349 46.2162 111.277 47.2863C110.38 50.3524 110.35 50.3524 110.58 50.6897C110.81 51.027 111.584 51.3489 112.465 52.0235C111.148 53.5649 109.319 54.5799 107.314 54.8826ZM107.314 56.2624C106.916 56.2624 107.314 55.5342 107.644 55.5342C107.973 55.5342 107.575 56.2394 107.314 56.2624ZM104.961 56.0707C104.961 56.4693 104.194 56.7683 103.919 56.569C103.643 56.3697 104.064 55.9021 104.478 55.8024C104.577 55.7764 104.682 55.7898 104.77 55.8399C104.859 55.8901 104.925 55.9729 104.953 56.0707H104.961ZM102.385 55.3732C102.354 55.4007 102.317 55.4202 102.276 55.4302C102.236 55.4402 102.193 55.4403 102.153 55.4306C102.112 55.4208 102.075 55.4014 102.043 55.3741C102.011 55.3468 101.987 55.3123 101.972 55.2735C101.887 54.8673 102.493 54.645 102.615 54.806C102.738 54.9669 102.646 55.1509 102.378 55.3732H102.385ZM113.753 67.1011C113.803 67.1216 113.845 67.1568 113.874 67.2021C113.902 67.2474 113.917 67.3005 113.914 67.3541C113.9 67.4058 113.871 67.4519 113.829 67.4862C113.788 67.5205 113.738 67.5413 113.684 67.5457C111.385 67.3387 109.66 65.844 109.185 63.0002C109.172 62.9361 109.186 62.8699 109.223 62.816C109.259 62.7621 109.316 62.7249 109.38 62.7127C109.444 62.7005 109.51 62.7143 109.564 62.7509C109.618 62.7876 109.655 62.8441 109.668 62.9082C109.916 63.9052 110.424 64.8186 111.14 65.5552C111.857 66.2918 112.756 66.8252 113.745 67.1011H113.753ZM83.7051 31.1432C83.7511 31.3348 83.2069 31.4038 82.7316 32.7145C82.7195 32.7748 82.7297 32.8375 82.7604 32.8908C82.7911 32.944 82.8402 32.9843 82.8985 33.004C82.9567 33.0238 83.0201 33.0216 83.0769 32.9979C83.1337 32.9743 83.1799 32.9308 83.2069 32.8755C83.6131 31.7717 84.5636 31.9787 84.3797 31.0818C84.0194 29.3418 84.4486 28.445 85.0465 28.6213C85.1615 28.6213 85.1002 30.1543 85.4758 30.5453C86.1427 31.3118 84.9316 32.4616 84.7093 33.3124C84.6478 33.5899 84.6504 33.8776 84.7169 34.1539C84.7833 34.4301 84.9117 34.6876 85.0925 34.9068C85.2382 35.1291 92.1139 46.2361 92.5739 46.9567C90.9538 48.5501 89.5957 50.3895 88.5496 52.4067C84.8396 47.1713 84.1114 40.5868 82.8619 34.5772C82.707 34.252 82.4324 33.9993 82.0954 33.872C80.9056 33.2549 79.9046 32.328 79.1979 31.1891L83.7051 31.1432ZM92.6199 47.8612C92.9648 47.4779 93.0031 47.4013 93.1334 47.4319C93.4472 47.59 93.7407 47.7856 94.0073 48.0145C93.1028 48.7274 90.6269 51.6019 89.9753 53.8018C89.6487 53.5799 89.272 53.4429 88.8792 53.4032C89.5844 51.2723 91.1328 49.5399 92.6199 47.8612ZM92.0833 89.0086C85.8744 89.1159 70.2525 89.5528 69.2713 89.4071C68.9877 89.1542 69.0031 88.5946 69.0107 88.1424C69.0107 88.0581 69.2253 67.7373 69.3403 66.4342C69.3403 66.1736 67.4393 66.2886 94.8811 65.614C93.5167 73.0111 92.8422 81.0443 92.0833 89.0086ZM94.9041 92.136C95.7353 92.2886 96.5872 92.2886 97.4183 92.136C97.4589 92.1299 97.4963 92.111 97.5253 92.082C97.5543 92.053 97.5732 92.0155 97.5793 91.975C99.1584 83.3899 97.6866 82.7767 99.1124 67.1931C99.8789 58.4623 101.029 55.5802 100.799 55.2965C99.557 53.7635 100.324 52.1001 101.903 50.9733C101.136 52.3531 101.351 53.4722 101.964 54.1697C101.772 54.2409 101.609 54.3718 101.498 54.5431C101.386 54.7144 101.333 54.917 101.346 55.1208C101.359 55.3247 101.437 55.5189 101.569 55.6748C101.701 55.8308 101.88 55.94 102.079 55.9864C102.356 56.0044 102.63 55.9162 102.845 55.7397C103.06 55.5632 103.2 55.3116 103.236 55.0359C103.474 55.1326 103.717 55.2145 103.965 55.2812C102.93 55.8944 102.96 57.2435 104.171 57.2435C104.515 57.266 104.853 57.1574 105.119 56.9397C105.386 56.722 105.559 56.4114 105.605 56.0707C105.605 55.2505 104.746 55.5802 106.655 55.5342C105.927 57.0136 107.927 57.3662 108.334 55.9328C108.405 55.7345 108.405 55.5178 108.334 55.3195C111.875 54.553 109.936 53.1656 108.334 59.1982C107.069 63.9047 107.567 69.5157 108.234 73.4326C107.352 74.127 106.531 74.8964 105.781 75.7322C104.907 73.9002 104.532 73.0724 104.34 72.7121C104.148 72.3518 104.141 72.4362 104.034 72.4668C103.627 72.6048 102.539 73.0341 101.496 73.471C101.933 68.7875 102.186 65.913 103.029 59.0525C103.034 58.9929 103.017 58.9336 102.98 58.8864C102.943 58.8391 102.89 58.8075 102.831 58.7979C102.772 58.7882 102.711 58.8011 102.662 58.8341C102.612 58.8671 102.576 58.9178 102.562 58.9759C101.895 63.0692 101.105 68.3659 100.776 73.7853C100.009 74.1072 99.6106 74.2682 99.4113 74.3831C99.212 74.4981 99.2274 74.5518 99.2657 74.6514C99.4343 75.0577 99.9249 76.1845 100.53 77.5719C99.7639 83.4819 97.8936 101.426 97.7096 104.025C96.509 103.387 95.3982 102.593 94.4059 101.664C94.2105 98.4794 94.3776 95.2829 94.9041 92.136ZM107.383 79.243C107.813 78.875 108.487 78.2311 108.916 77.8095C110.012 87.4142 110.771 82.769 109.905 98.9121C109.729 102.178 109.576 105.044 109.675 106.309C107.884 106.429 106.086 106.359 104.309 106.102C104.401 104.148 105.26 86.7626 105.413 84.9306C106.572 84.472 107.694 83.9262 108.771 83.2979C108.924 83.1599 108.886 83.3286 107.383 79.243ZM115.493 126.768V127.941C109.79 127.097 105.022 126.408 102.861 126.055C102.822 125.595 102.792 125.219 102.769 124.989C104.24 120.107 106.417 113.622 104.424 108.892C104.156 108.248 103.942 108.823 104.892 106.922C106.335 107.084 107.788 107.135 109.238 107.076C110.595 108.938 110.043 109.222 109.92 110.908C109.491 116.573 112.718 121.678 115.493 126.768ZM115.539 128.738C115.585 129.305 115.669 129.895 115.769 130.478L102.991 128.232C102.991 127.741 102.937 127.251 102.907 126.791C105.459 127.22 110.12 127.933 115.539 128.738ZM103.558 105.98C101.761 105.676 100.014 105.124 98.3688 104.339C98.4455 103.634 100.607 82.7383 101.036 78.7754C103.144 83.5662 103.719 84.9076 103.926 85.2449C104.026 85.4059 104.041 85.3675 104.095 85.3675C104.301 85.3302 104.504 85.2737 104.7 85.1989C104.202 90.7792 103.597 103.948 103.558 105.98ZM104.164 106.8C103.344 108.241 103.267 108.333 103.65 108.992C104.417 110.318 104.463 112.771 104.417 114.296C104.286 117.11 102.209 124.054 102.002 124.737C101.683 125.019 101.288 125.202 100.865 125.263C100.443 125.325 100.013 125.261 99.626 125.081C99.465 125.02 99.5186 125.196 99.4267 123.978C99.1277 119.93 98.3458 109.46 97.8936 104.937C99.8798 105.865 101.993 106.493 104.164 106.8ZM114.765 94.0063C115.118 97.0265 116.26 104.845 116.459 106.179L114.865 106.577C114.612 105.811 113.799 102.944 113.485 102.277C113.451 102.215 113.399 102.164 113.335 102.132C113.272 102.1 113.201 102.088 113.13 102.097C113.06 102.106 112.994 102.136 112.941 102.183C112.888 102.23 112.85 102.293 112.833 102.362C112.603 103.603 112.381 104.853 112.159 106.095C111.507 106.156 110.917 106.202 110.373 106.24C110.373 102.362 110.511 98.3986 110.741 94.4663C112.021 94.3666 114.098 94.129 114.765 94.0063ZM111.86 83.0833C111.855 83.0336 111.871 82.9842 111.902 82.9456C111.934 82.907 111.979 82.8821 112.028 82.8763C117.394 82.2324 117.18 82.1788 117.256 82.3934C117.426 82.9593 117.483 83.5531 117.425 84.1411C117.425 84.348 117.647 84.2254 112.243 84.9076C111.975 84.9766 112.021 84.716 111.86 83.0833ZM117.164 106.003C116.214 100.997 115.976 99.0578 115.347 93.9067C116.206 93.8315 117.059 93.701 117.9 93.5157C118.815 97.4569 119.28 101.489 119.287 105.535C118.552 105.681 117.816 105.849 117.164 106.003ZM119.847 83.3056C119.77 93.7687 120.039 94.5199 119.157 96.2829C118.981 95.2558 118.782 94.221 118.552 93.2168C118.793 93.0457 119.01 92.8419 119.195 92.6112C119.418 92.343 118.598 82.6463 117.271 75.6326C117.915 75.3873 119.195 74.8661 119.885 74.5135C119.893 77.4339 119.87 80.4157 119.847 83.3056ZM121.326 71.685C121.155 72.421 120.719 73.0679 120.1 73.5016C116.827 75.6173 109.031 76.6597 108.955 76.6674C108.918 76.6745 108.884 76.6909 108.856 76.7151C108.828 76.7393 108.806 76.7704 108.794 76.8054C108.264 77.5489 107.643 78.2235 106.946 78.8137C106.539 79.285 106.008 79.6329 105.413 79.8179C104.946 79.8868 103.811 79.3196 105.068 79.2046C105.402 79.2153 105.731 79.1193 106.007 78.9304C106.282 78.7416 106.491 78.4698 106.601 78.1545C106.619 78.1052 106.619 78.0512 106.6 78.0022C106.582 77.9531 106.547 77.912 106.502 77.8862C106.057 77.6792 106.425 78.7294 104.302 78.6527C103.788 78.6527 103.129 77.9935 103.972 78.0548C105.337 78.1621 106.272 77.227 105.935 76.974C105.899 76.9447 105.854 76.9287 105.808 76.9287C105.762 76.9287 105.717 76.9447 105.682 76.974C105.091 77.6026 104.21 77.4493 103.321 77.342C102.884 77.2883 102.554 76.8207 103.129 76.7287C103.896 76.6061 105.774 76.6138 105.988 76.3991C108.288 73.8466 111.599 72.1525 114.297 70.7958C116.788 69.5715 119.175 68.1461 121.434 66.5339C121.709 68.2433 121.672 69.9884 121.326 71.685ZM121.15 62.9925C121.574 63.6287 121.803 64.3745 121.809 65.1388C119.791 66.6476 117.684 68.0349 115.501 69.2934C115.439 68.8565 115.332 68.0516 115.317 67.7603C118.222 66.1123 120.276 64.4182 121.15 62.9925ZM29.0055 9.86427C54.2013 10.4468 114.297 12.4475 114.297 12.4475C115.393 12.4475 115.945 12.5011 116.214 12.4858H116.283C118.421 12.7848 119.64 14.7854 120.039 16.3951C120.235 17.3633 120.318 18.3512 120.284 19.3386C107 19.1163 61.859 18.0891 25.2955 16.5178C25.2955 13.1297 25.6174 10.3165 29.0055 9.86427ZM25.2955 100.261C23.3485 100.261 17.2239 100.261 15.2769 100.353C15.2769 97.9616 15.1389 81.4352 15.116 79.036C16.5647 79.0896 23.2182 78.921 24.7436 78.8827C24.7589 98.1839 24.5289 98.2146 25.2955 100.261ZM24.7282 71.8996C22.605 71.8996 16.1508 71.8996 14.6867 71.9686C14.7327 71.0947 14.7633 68.9025 14.7863 67.8523C16.2121 67.8523 22.5436 67.676 24.7512 67.5534C24.7206 68.9714 24.7206 70.4279 24.7206 71.8459L24.7282 71.8996ZM24.7282 66.8635C23.6704 66.8635 14.9243 67.1318 14.4797 67.1701C14.0351 67.2084 14.1195 67.6223 14.0965 68.3889C14.0121 70.9261 13.9892 71.9532 14.0351 72.3748C14.0735 72.6585 14.1348 72.6661 14.2421 72.6738C15.2386 72.7428 23.7241 72.6048 24.7359 72.5895V78.1928C14.1808 78.3154 14.4721 78.3001 14.4721 78.7217C14.4721 78.921 14.4721 99.1191 14.5564 100.874C14.5564 101.235 15.4609 101.143 25.6481 101.058C26.8669 103.358 28.8215 103.542 31.4201 103.726C34.0186 103.91 91.2708 102.239 93.9153 102.147C94.8535 103.19 95.9828 104.043 97.242 104.661C97.6176 108.977 98.1619 116.926 98.4992 122C93.6777 122.322 13.4143 128.263 10.5628 128.47C10.5628 126.561 10.2178 63.3604 10.2178 63.3604C11.4749 63.3604 23.2488 63.1688 24.7129 63.1228V66.8098L24.7282 66.8635ZM6.89874 133.322C6.01723 132.41 6.39283 135.184 6.39283 62.0343C6.39283 59.7347 7.92589 59.1369 9.71191 59.0372C12.0115 58.9069 16.2274 59.1369 24.7129 58.8916V62.3639C22.9499 62.3639 9.85755 62.5786 9.85755 62.5786C9.80695 62.5803 9.75719 62.592 9.71114 62.6131C9.66509 62.6341 9.62367 62.6641 9.58927 62.7012C9.43596 62.8699 9.83456 128.899 9.86522 128.975C9.88018 129.01 9.90484 129.039 9.93617 129.059C9.9675 129.08 10.0041 129.091 10.0415 129.09C10.0415 129.09 90.7802 123.249 98.5451 122.613C98.5451 123.104 98.7598 125.871 98.7904 126.247C88.4269 127.09 7.66527 133.222 6.89874 133.322ZM48.9353 142.144L8.74608 133.805C23.4481 132.846 87.0855 127.971 98.6141 126.975C98.4815 127.406 98.3096 127.824 98.1006 128.224C90.8109 128.784 25.4488 134.272 25.4488 134.272C24.9659 134.318 25.0042 135.039 25.4488 135.039L47.2642 139.009C47.3256 139.009 48.9123 138.879 116.39 132.877C116.39 132.977 116.436 133.046 116.513 133.099C117.187 133.521 118.26 133.099 118.26 132.785C118.242 132.379 118.289 131.973 118.398 131.582C118.398 131.582 118.621 131.681 119.027 132.885C119.035 132.911 119.048 132.935 119.067 132.955C119.086 132.975 119.109 132.99 119.134 133C120.545 133.504 121.997 133.886 123.473 134.142C123.751 134.146 124.026 134.083 124.274 133.958C124.523 133.832 124.737 133.648 124.898 133.421C124.992 133.204 125.02 132.963 124.978 132.73C124.935 132.497 124.825 132.281 124.661 132.111C123.282 131.56 122.058 130.682 121.096 129.55C131.437 131.083 142.713 132.616 146.967 133.237L48.9353 142.144Z" fill="black"/>
</svg>
