<svg width="119" height="48" viewBox="0 0 119 48" fill="none" xmlns="http://www.w3.org/2000/svg">
<path d="M16.7188 35H13.9531V16.7656H16.7188V35ZM23.4102 22.0273V35H20.6562V22.0273H23.4102ZM22.0508 17.0586C22.4727 17.0586 22.8359 17.1719 23.1406 17.3984C23.4531 17.625 23.6094 18.0156 23.6094 18.5703C23.6094 19.1172 23.4531 19.5078 23.1406 19.7422C22.8359 19.9688 22.4727 20.082 22.0508 20.082C21.6133 20.082 21.2422 19.9688 20.9375 19.7422C20.6406 19.5078 20.4922 19.1172 20.4922 18.5703C20.4922 18.0156 20.6406 17.625 20.9375 17.3984C21.2422 17.1719 21.6133 17.0586 22.0508 17.0586ZM34.1211 21.7812C35.582 21.7812 36.7188 22.1602 37.5312 22.918C38.3516 23.668 38.7617 24.875 38.7617 26.5391V35H36.0078V27.0547C36.0078 26.0469 35.8008 25.293 35.3867 24.793C34.9727 24.2852 34.332 24.0312 33.4648 24.0312C32.207 24.0312 31.332 24.418 30.8398 25.1914C30.3555 25.9648 30.1133 27.0859 30.1133 28.5547V35H27.3594V22.0273H29.5039L29.8906 23.7852H30.043C30.3242 23.332 30.6719 22.9609 31.0859 22.6719C31.5078 22.375 31.9766 22.1523 32.4922 22.0039C33.0156 21.8555 33.5586 21.7812 34.1211 21.7812ZM46.3203 40.7656C44.5625 40.7656 43.2148 40.4492 42.2773 39.8164C41.3398 39.1836 40.8711 38.2969 40.8711 37.1562C40.8711 36.3594 41.1211 35.6836 41.6211 35.1289C42.1211 34.582 42.8359 34.2031 43.7656 33.9922C43.4141 33.8359 43.1094 33.5938 42.8516 33.2656C42.6016 32.9297 42.4766 32.5586 42.4766 32.1523C42.4766 31.668 42.6133 31.2539 42.8867 30.9102C43.1602 30.5664 43.5703 30.2344 44.1172 29.9141C43.4375 29.625 42.8906 29.1562 42.4766 28.5078C42.0703 27.8516 41.8672 27.082 41.8672 26.1992C41.8672 25.2617 42.0664 24.4648 42.4648 23.8086C42.8633 23.1445 43.4453 22.6406 44.2109 22.2969C44.9766 21.9453 45.9023 21.7695 46.9883 21.7695C47.2227 21.7695 47.4766 21.7852 47.75 21.8164C48.0312 21.8398 48.2891 21.8711 48.5234 21.9102C48.7656 21.9414 48.9492 21.9766 49.0742 22.0156H53.5625V23.5508L51.3594 23.9609C51.5703 24.2578 51.7383 24.5977 51.8633 24.9805C51.9883 25.3555 52.0508 25.7656 52.0508 26.2109C52.0508 27.5547 51.5859 28.6133 50.6562 29.3867C49.7344 30.1523 48.4609 30.5352 46.8359 30.5352C46.4453 30.5195 46.0664 30.4883 45.6992 30.4414C45.418 30.6133 45.2031 30.8047 45.0547 31.0156C44.9062 31.2188 44.832 31.4492 44.832 31.707C44.832 31.918 44.9062 32.0898 45.0547 32.2227C45.2031 32.3477 45.4219 32.4414 45.7109 32.5039C46.0078 32.5664 46.3672 32.5977 46.7891 32.5977H49.0273C50.4492 32.5977 51.5352 32.8984 52.2852 33.5C53.0352 34.1016 53.4102 34.9844 53.4102 36.1484C53.4102 37.625 52.8008 38.7617 51.582 39.5586C50.3633 40.3633 48.6094 40.7656 46.3203 40.7656ZM46.4258 38.832C47.3867 38.832 48.1953 38.7383 48.8516 38.5508C49.5078 38.3633 50.0039 38.0938 50.3398 37.7422C50.6758 37.3984 50.8438 36.9883 50.8438 36.5117C50.8438 36.0898 50.7383 35.7656 50.5273 35.5391C50.3164 35.3125 50 35.1562 49.5781 35.0703C49.1562 34.9844 48.6328 34.9414 48.0078 34.9414H45.9688C45.4609 34.9414 45.0117 35.0195 44.6211 35.1758C44.2305 35.3398 43.9258 35.5742 43.707 35.8789C43.4961 36.1836 43.3906 36.5508 43.3906 36.9805C43.3906 37.5742 43.6523 38.0312 44.1758 38.3516C44.707 38.6719 45.457 38.832 46.4258 38.832ZM46.9648 28.7305C47.7695 28.7305 48.3672 28.5117 48.7578 28.0742C49.1484 27.6289 49.3438 27.0039 49.3438 26.1992C49.3438 25.3242 49.1406 24.668 48.7344 24.2305C48.3359 23.793 47.7422 23.5742 46.9531 23.5742C46.1797 23.5742 45.5898 23.7969 45.1836 24.2422C44.7852 24.6875 44.5859 25.3477 44.5859 26.2227C44.5859 27.0117 44.7852 27.6289 45.1836 28.0742C45.5898 28.5117 46.1836 28.7305 46.9648 28.7305ZM67.2383 22.0273V35H65.0703L64.6953 33.2539H64.543C64.2695 33.6992 63.9219 34.0703 63.5 34.3672C63.0781 34.6562 62.6094 34.8711 62.0938 35.0117C61.5781 35.1602 61.0352 35.2344 60.4648 35.2344C59.4883 35.2344 58.6523 35.0703 57.957 34.7422C57.2695 34.4062 56.7422 33.8906 56.375 33.1953C56.0078 32.5 55.8242 31.6016 55.8242 30.5V22.0273H58.5898V29.9844C58.5898 30.9922 58.793 31.7461 59.1992 32.2461C59.6133 32.7461 60.2539 32.9961 61.1211 32.9961C61.957 32.9961 62.6211 32.8242 63.1133 32.4805C63.6055 32.1367 63.9531 31.6289 64.1562 30.957C64.3672 30.2852 64.4727 29.4609 64.4727 28.4844V22.0273H67.2383ZM76.3555 21.7812C77.5117 21.7812 78.5039 22.0195 79.332 22.4961C80.1602 22.9727 80.7969 23.6484 81.2422 24.5234C81.6875 25.3984 81.9102 26.4453 81.9102 27.6641V29.1406H73.25C73.2812 30.3984 73.6172 31.3672 74.2578 32.0469C74.9062 32.7266 75.8125 33.0664 76.9766 33.0664C77.8047 33.0664 78.5469 32.9883 79.2031 32.832C79.8672 32.668 80.5508 32.4297 81.2539 32.1172V34.3555C80.6055 34.6602 79.9453 34.8828 79.2734 35.0234C78.6016 35.1641 77.7969 35.2344 76.8594 35.2344C75.5859 35.2344 74.4648 34.9883 73.4961 34.4961C72.5352 33.9961 71.7812 33.2539 71.2344 32.2695C70.6953 31.2852 70.4258 30.0625 70.4258 28.6016C70.4258 27.1484 70.6719 25.9141 71.1641 24.8984C71.6562 23.8828 72.3477 23.1094 73.2383 22.5781C74.1289 22.0469 75.168 21.7812 76.3555 21.7812ZM76.3555 23.8555C75.4883 23.8555 74.7852 24.1367 74.2461 24.6992C73.7148 25.2617 73.4023 26.0859 73.3086 27.1719H79.2148C79.207 26.5234 79.0977 25.9492 78.8867 25.4492C78.6836 24.9492 78.3711 24.5586 77.9492 24.2773C77.5352 23.9961 77.0039 23.8555 76.3555 23.8555Z" fill="#333333"/>
<path d="M86.3438 21.2969C85.4896 20.0573 85.0625 18.2917 85.0625 16V13.7344H91.2188L102.844 26.4688C103.5 27.1979 103.938 27.8125 104.156 28.3125C104.375 28.8125 104.536 29.2708 104.641 29.6875C104.87 30.5208 104.984 31.5469 104.984 32.7656V35H99L86.3906 21.2969H86.3438ZM98.2188 20.4062C98.2188 17.5417 98.6615 15.6771 99.5469 14.8125C100.016 14.3542 100.625 14.0625 101.375 13.9375C102.135 13.8021 103.057 13.7344 104.141 13.7344H104.984V16.2031C104.984 18.4219 104.401 19.9062 103.234 20.6562C102.401 21.1979 101 21.4688 99.0312 21.4688H98.2188V20.4062ZM85.0625 32.5625C85.0625 30.3438 85.6458 28.8542 86.8125 28.0938C87.6458 27.5625 89.0469 27.2969 91.0156 27.2969H91.8281V28.3594C91.8281 31.2552 91.3854 33.1146 90.5 33.9375C89.8958 34.5 89.0156 34.8333 87.8594 34.9375C87.276 34.9792 86.625 35 85.9062 35H85.0625V32.5625Z" fill="#F955C8" fill-opacity="0.96"/>
</svg>
